<svg viewBox="0 0 1106.2000732421875 400" xmlns="http://www.w3.org/2000/svg"><g><g><g><g><g><line x1="60" y1="377" x2="55" y2="377" style="visibility: inherit;" fill="rgb(0, 0, 0)" stroke="rgb(204, 204, 204)" stroke-width="1px"></line><line x1="60" y1="342.7272727272727" x2="55" y2="342.7272727272727" style="visibility: inherit;" fill="rgb(0, 0, 0)" stroke="rgb(204, 204, 204)" stroke-width="1px"></line><line x1="60" y1="308.4545454545453" x2="55" y2="308.4545454545453" style="visibility: inherit;" fill="rgb(0, 0, 0)" stroke="rgb(204, 204, 204)" stroke-width="1px"></line><line x1="60" y1="274.18181818181796" x2="55" y2="274.18181818181796" style="visibility: inherit;" fill="rgb(0, 0, 0)" stroke="rgb(204, 204, 204)" stroke-width="1px"></line><line x1="60" y1="239.90909090909062" x2="55" y2="239.90909090909062" style="visibility: inherit;" fill="rgb(0, 0, 0)" stroke="rgb(204, 204, 204)" stroke-width="1px"></line><line x1="60" y1="205.63636363636328" x2="55" y2="205.63636363636328" style="visibility: inherit;" fill="rgb(0, 0, 0)" stroke="rgb(204, 204, 204)" stroke-width="1px"></line><line x1="60" y1="171.36363636363595" x2="55" y2="171.36363636363595" style="visibility: inherit;" fill="rgb(0, 0, 0)" stroke="rgb(204, 204, 204)" stroke-width="1px"></line><line x1="60" y1="137.09090909090858" x2="55" y2="137.09090909090858" style="visibility: inherit;" fill="rgb(0, 0, 0)" stroke="rgb(204, 204, 204)" stroke-width="1px"></line><line x1="60" y1="102.81818181818127" x2="55" y2="102.81818181818127" style="visibility: inherit;" fill="rgb(0, 0, 0)" stroke="rgb(204, 204, 204)" stroke-width="1px"></line><line x1="60" y1="68.54545454545394" x2="55" y2="68.54545454545394" style="visibility: inherit;" fill="rgb(0, 0, 0)" stroke="rgb(204, 204, 204)" stroke-width="1px"></line><line x1="60" y1="34.27272727272657" x2="55" y2="34.27272727272657" style="visibility: inherit;" fill="rgb(0, 0, 0)" stroke="rgb(204, 204, 204)" stroke-width="1px"></line></g><g transform="translate(50, 0)"><text x="0" y="377" dx="0em" dy="0.3em" style="text-anchor: end; visibility: hidden; font-family: Roboto, sans-serif; font-size: 12px; font-weight: 200;" fill="rgb(255, 255, 255)" stroke="none" stroke-width="1px">0.51</text><text x="0" y="342.7272727272727" dx="0em" dy="0.3em" style="text-anchor: end; visibility: inherit; font-family: Roboto, sans-serif; font-size: 12px; font-weight: 200;" fill="rgb(255, 255, 255)" stroke="none" stroke-width="1px">0.515</text><text x="0" y="308.4545454545453" dx="0em" dy="0.3em" style="text-anchor: end; visibility: inherit; font-family: Roboto, sans-serif; font-size: 12px; font-weight: 200;" fill="rgb(255, 255, 255)" stroke="none" stroke-width="1px">0.52</text><text x="0" y="274.18181818181796" dx="0em" dy="0.3em" style="text-anchor: end; visibility: inherit; font-family: Roboto, sans-serif; font-size: 12px; font-weight: 200;" fill="rgb(255, 255, 255)" stroke="none" stroke-width="1px">0.525</text><text x="0" y="239.90909090909062" dx="0em" dy="0.3em" style="text-anchor: end; visibility: inherit; font-family: Roboto, sans-serif; font-size: 12px; font-weight: 200;" fill="rgb(255, 255, 255)" stroke="none" stroke-width="1px">0.53</text><text x="0" y="205.63636363636328" dx="0em" dy="0.3em" style="text-anchor: end; visibility: inherit; font-family: Roboto, sans-serif; font-size: 12px; font-weight: 200;" fill="rgb(255, 255, 255)" stroke="none" stroke-width="1px">0.535</text><text x="0" y="171.36363636363595" dx="0em" dy="0.3em" style="text-anchor: end; visibility: inherit; font-family: Roboto, sans-serif; font-size: 12px; font-weight: 200;" fill="rgb(255, 255, 255)" stroke="none" stroke-width="1px">0.54</text><text x="0" y="137.09090909090858" dx="0em" dy="0.3em" style="text-anchor: end; visibility: inherit; font-family: Roboto, sans-serif; font-size: 12px; font-weight: 200;" fill="rgb(255, 255, 255)" stroke="none" stroke-width="1px">0.545</text><text x="0" y="102.81818181818127" dx="0em" dy="0.3em" style="text-anchor: end; visibility: inherit; font-family: Roboto, sans-serif; font-size: 12px; font-weight: 200;" fill="rgb(255, 255, 255)" stroke="none" stroke-width="1px">0.55</text><text x="0" y="68.54545454545394" dx="0em" dy="0.3em" style="text-anchor: end; visibility: inherit; font-family: Roboto, sans-serif; font-size: 12px; font-weight: 200;" fill="rgb(255, 255, 255)" stroke="none" stroke-width="1px">0.555</text><text x="0" y="34.27272727272657" dx="0em" dy="0.3em" style="text-anchor: end; visibility: inherit; font-family: Roboto, sans-serif; font-size: 12px; font-weight: 200;" fill="rgb(255, 255, 255)" stroke="none" stroke-width="1px">0.56</text></g><line x1="60" y1="0" x2="60" y2="377" fill="rgb(0, 0, 0)" stroke="rgb(204, 204, 204)" stroke-width="1px"></line></g></g><g transform="translate(60, 0)" clip-path="url(#clip_0)"><clipPath id="clip_0"><rect width="1046" height="377"></rect></clipPath><g><g><g><line x1="0" y1="0" x2="0" y2="377" fill="rgb(0, 0, 0)" stroke="rgb(189, 189, 189)" stroke-width="1px" opacity="0.25"></line><line x1="69.74666666666667" y1="0" x2="69.74666666666667" y2="377" fill="rgb(0, 0, 0)" stroke="rgb(189, 189, 189)" stroke-width="1px" opacity="0.25"></line><line x1="139.49333333333334" y1="0" x2="139.49333333333334" y2="377" fill="rgb(0, 0, 0)" stroke="rgb(189, 189, 189)" stroke-width="1px" opacity="0.25"></line><line x1="209.24" y1="0" x2="209.24" y2="377" fill="rgb(0, 0, 0)" stroke="rgb(189, 189, 189)" stroke-width="1px" opacity="0.25"></line><line x1="278.9866666666667" y1="0" x2="278.9866666666667" y2="377" fill="rgb(0, 0, 0)" stroke="rgb(189, 189, 189)" stroke-width="1px" opacity="0.25"></line><line x1="348.73333333333335" y1="0" x2="348.73333333333335" y2="377" fill="rgb(0, 0, 0)" stroke="rgb(189, 189, 189)" stroke-width="1px" opacity="0.25"></line><line x1="418.48" y1="0" x2="418.48" y2="377" fill="rgb(0, 0, 0)" stroke="rgb(189, 189, 189)" stroke-width="1px" opacity="0.25"></line><line x1="488.2266666666667" y1="0" x2="488.2266666666667" y2="377" fill="rgb(0, 0, 0)" stroke="rgb(189, 189, 189)" stroke-width="1px" opacity="0.25"></line><line x1="557.9733333333334" y1="0" x2="557.9733333333334" y2="377" fill="rgb(0, 0, 0)" stroke="rgb(189, 189, 189)" stroke-width="1px" opacity="0.25"></line><line x1="627.72" y1="0" x2="627.72" y2="377" fill="rgb(0, 0, 0)" stroke="rgb(189, 189, 189)" stroke-width="1px" opacity="0.25"></line><line x1="697.4666666666667" y1="0" x2="697.4666666666667" y2="377" fill="rgb(0, 0, 0)" stroke="rgb(189, 189, 189)" stroke-width="1px" opacity="0.25"></line><line x1="767.2133333333334" y1="0" x2="767.2133333333334" y2="377" fill="rgb(0, 0, 0)" stroke="rgb(189, 189, 189)" stroke-width="1px" opacity="0.25"></line><line x1="836.96" y1="0" x2="836.96" y2="377" fill="rgb(0, 0, 0)" stroke="rgb(189, 189, 189)" stroke-width="1px" opacity="0.25"></line><line x1="906.7066666666667" y1="0" x2="906.7066666666667" y2="377" fill="rgb(0, 0, 0)" stroke="rgb(189, 189, 189)" stroke-width="1px" opacity="0.25"></line><line x1="976.4533333333334" y1="0" x2="976.4533333333334" y2="377" fill="rgb(0, 0, 0)" stroke="rgb(189, 189, 189)" stroke-width="1px" opacity="0.25"></line><line x1="1046.2" y1="0" x2="1046.2" y2="377" fill="rgb(0, 0, 0)" stroke="rgb(189, 189, 189)" stroke-width="1px" opacity="0.25"></line></g><g><line x1="0" y1="377" x2="1046.2" y2="377" fill="rgb(0, 0, 0)" stroke="rgb(189, 189, 189)" stroke-width="1px" opacity="0.25"></line><line x1="0" y1="342.7272727272727" x2="1046.2" y2="342.7272727272727" fill="rgb(0, 0, 0)" stroke="rgb(189, 189, 189)" stroke-width="1px" opacity="0.25"></line><line x1="0" y1="308.4545454545453" x2="1046.2" y2="308.4545454545453" fill="rgb(0, 0, 0)" stroke="rgb(189, 189, 189)" stroke-width="1px" opacity="0.25"></line><line x1="0" y1="274.18181818181796" x2="1046.2" y2="274.18181818181796" fill="rgb(0, 0, 0)" stroke="rgb(189, 189, 189)" stroke-width="1px" opacity="0.25"></line><line x1="0" y1="239.90909090909062" x2="1046.2" y2="239.90909090909062" fill="rgb(0, 0, 0)" stroke="rgb(189, 189, 189)" stroke-width="1px" opacity="0.25"></line><line x1="0" y1="205.63636363636328" x2="1046.2" y2="205.63636363636328" fill="rgb(0, 0, 0)" stroke="rgb(189, 189, 189)" stroke-width="1px" opacity="0.25"></line><line x1="0" y1="171.36363636363595" x2="1046.2" y2="171.36363636363595" fill="rgb(0, 0, 0)" stroke="rgb(189, 189, 189)" stroke-width="1px" opacity="0.25"></line><line x1="0" y1="137.09090909090858" x2="1046.2" y2="137.09090909090858" fill="rgb(0, 0, 0)" stroke="rgb(189, 189, 189)" stroke-width="1px" opacity="0.25"></line><line x1="0" y1="102.81818181818127" x2="1046.2" y2="102.81818181818127" fill="rgb(0, 0, 0)" stroke="rgb(189, 189, 189)" stroke-width="1px" opacity="0.25"></line><line x1="0" y1="68.54545454545394" x2="1046.2" y2="68.54545454545394" fill="rgb(0, 0, 0)" stroke="rgb(189, 189, 189)" stroke-width="1px" opacity="0.25"></line><line x1="0" y1="34.27272727272657" x2="1046.2" y2="34.27272727272657" fill="rgb(0, 0, 0)" stroke="rgb(189, 189, 189)" stroke-width="1px" opacity="0.25"></line></g></g></g><g><g><line x1="0" y1="3872.818181818186" x2="1046.2" y2="3872.818181818186" fill="rgb(0, 0, 0)" stroke="rgb(153, 153, 153)" stroke-width="1.5px"></line></g></g><g><g><line x1="69.74666666666667" y1="0" x2="69.74666666666667" y2="377" fill="rgb(0, 0, 0)" stroke="rgb(153, 153, 153)" stroke-width="1.5px"></line></g></g><g><g><g><g><g><path stroke="rgb(238, 51, 119)" stroke-width="2px" d="M69.74666666666667,78.33783743598218L104.62,78.33783743598218L139.49333333333334,78.33783743598218L174.36666666666667,78.33783743598218L209.24,78.33783743598293L244.11333333333334,78.33783743598218L278.9866666666667,78.33783743598218L313.86,78.33783743598218L348.73333333333335,78.33783743598218L383.6066666666667,78.33783743598138L418.48,78.33783743598138L453.35333333333335,78.33783743598138L488.2266666666667,78.33783743598138L523.1,78.33783743598218L557.9733333333334,78.33783743598293L592.8466666666667,78.33783743598293L627.72,78.33783743598218L662.5933333333334,78.33783743598218L697.4666666666667,78.33783743598293L732.34,78.33783743598218L767.2133333333334,78.33783743598293L802.0866666666667,78.33783743598293L836.96,78.33783743598218L871.8333333333334,78.33783743598218L906.7066666666667,78.33783743598218L941.58,78.33783743598218L976.4533333333334,78.33783743598218L1011.3266666666667,421.0652389176228" style="fill: none;" fill="none"></path></g><g><path stroke="rgb(51, 187, 238)" stroke-width="2px" d="M69.74666666666667,311.74810049750585L104.62,371.7853747497906L139.49333333333334,313.1483867774427L174.36666666666667,391.33532750000967L209.24,347.888313569765L244.11333333333334,332.7247574673461L278.9866666666667,295.8564057006349L313.86,263.24142160668157L348.73333333333335,224.61908572095234L383.6066666666667,248.6376784423459L418.48,262.9555476376294L453.35333333333335,230.25472514396176L488.2266666666667,210.6798480725546L523.1,198.95129699668226L557.9733333333334,191.920051346042L592.8466666666667,187.70342038384783L627.72,185.1742032524993L662.5933333333334,180.91210711868624L697.4666666666667,181.09985484596353L732.34,181.21249616008382L767.2133333333334,181.28007831275792L802.0866666666667,181.32062665551928L836.96,181.34495531960326L871.8333333333334,181.35955239508917L906.7066666666667,181.3683105961141L941.58,181.37356550079375L976.4533333333334,181.37671843786353L1011.3266666666667,247.2481172563449" style="fill: none;" fill="none"></path></g></g></g></g><g opacity="0.2"><g><g><g><path stroke="rgb(238, 51, 119)" stroke-width="2px" d="M69.74666666666667,78.33783743598218L104.62,78.33783743598218L139.49333333333334,78.33783743598218L174.36666666666667,78.33783743598218L209.24,78.33783743598218L244.11333333333334,78.33783743598218L278.9866666666667,78.33783743598218L313.86,78.33783743598218L348.73333333333335,78.33783743598218L383.6066666666667,78.33783743598218L418.48,78.33783743598218L453.35333333333335,78.33783743598218L488.2266666666667,78.33783743598218L523.1,78.33783743598218L557.9733333333334,78.33783743598218L592.8466666666667,78.33783743598218L627.72,78.33783743598218L662.5933333333334,78.33783743598218L697.4666666666667,78.33783743598218L732.34,78.33783743598218L767.2133333333334,78.33783743598218L802.0866666666667,78.33783743598218L836.96,78.33783743598218L871.8333333333334,78.33783743598218L906.7066666666667,78.33783743598218L941.58,78.33783743598218L976.4533333333334,78.33783743598218L1011.3266666666667,935.1558149727915" style="fill: none;" fill="none"></path></g><g><path stroke="rgb(51, 187, 238)" stroke-width="2px" d="M69.74666666666667,311.74810049750585L104.62,407.80773930116146L139.49333333333334,256.85687832398844L174.36666666666667,483.28316978974794L209.24,291.1638921824368L244.11333333333334,311.74810049750585L278.9866666666667,243.13407278060905L313.86,215.68846169385031L348.73333333333335,167.65864229202253L383.6066666666667,284.3024894107471L418.48,284.3024894107471L453.35333333333335,181.3814478354019L488.2266666666667,181.3814478354019L523.1,181.3814478354019L557.9733333333334,181.3814478354019L592.8466666666667,181.3814478354019L627.72,181.3814478354019L662.5933333333334,174.52004506371222L697.4666666666667,181.3814478354019L732.34,181.3814478354019L767.2133333333334,181.3814478354019L802.0866666666667,181.3814478354019L836.96,181.3814478354019L871.8333333333334,181.3814478354019L906.7066666666667,181.3814478354019L941.58,181.3814478354019L976.4533333333334,181.3814478354019L1011.3266666666667,346.0551143559543" style="fill: none;" fill="none"></path></g></g></g></g></g></g><g transform="translate(60, 377)" clip-path="url(#clip_1)"><clipPath id="clip_1"><rect width="1046" height="23"></rect></clipPath><g><g><line x1="0" y1="0" x2="0" y2="5" style="visibility: inherit;" fill="rgb(0, 0, 0)" stroke="rgb(204, 204, 204)" stroke-width="1px"></line><line x1="69.74666666666667" y1="0" x2="69.74666666666667" y2="5" style="visibility: inherit;" fill="rgb(0, 0, 0)" stroke="rgb(204, 204, 204)" stroke-width="1px"></line><line x1="139.49333333333334" y1="0" x2="139.49333333333334" y2="5" style="visibility: inherit;" fill="rgb(0, 0, 0)" stroke="rgb(204, 204, 204)" stroke-width="1px"></line><line x1="209.24" y1="0" x2="209.24" y2="5" style="visibility: inherit;" fill="rgb(0, 0, 0)" stroke="rgb(204, 204, 204)" stroke-width="1px"></line><line x1="278.9866666666667" y1="0" x2="278.9866666666667" y2="5" style="visibility: inherit;" fill="rgb(0, 0, 0)" stroke="rgb(204, 204, 204)" stroke-width="1px"></line><line x1="348.73333333333335" y1="0" x2="348.73333333333335" y2="5" style="visibility: inherit;" fill="rgb(0, 0, 0)" stroke="rgb(204, 204, 204)" stroke-width="1px"></line><line x1="418.48" y1="0" x2="418.48" y2="5" style="visibility: inherit;" fill="rgb(0, 0, 0)" stroke="rgb(204, 204, 204)" stroke-width="1px"></line><line x1="488.2266666666667" y1="0" x2="488.2266666666667" y2="5" style="visibility: inherit;" fill="rgb(0, 0, 0)" stroke="rgb(204, 204, 204)" stroke-width="1px"></line><line x1="557.9733333333334" y1="0" x2="557.9733333333334" y2="5" style="visibility: inherit;" fill="rgb(0, 0, 0)" stroke="rgb(204, 204, 204)" stroke-width="1px"></line><line x1="627.72" y1="0" x2="627.72" y2="5" style="visibility: inherit;" fill="rgb(0, 0, 0)" stroke="rgb(204, 204, 204)" stroke-width="1px"></line><line x1="697.4666666666667" y1="0" x2="697.4666666666667" y2="5" style="visibility: inherit;" fill="rgb(0, 0, 0)" stroke="rgb(204, 204, 204)" stroke-width="1px"></line><line x1="767.2133333333334" y1="0" x2="767.2133333333334" y2="5" style="visibility: inherit;" fill="rgb(0, 0, 0)" stroke="rgb(204, 204, 204)" stroke-width="1px"></line><line x1="836.96" y1="0" x2="836.96" y2="5" style="visibility: inherit;" fill="rgb(0, 0, 0)" stroke="rgb(204, 204, 204)" stroke-width="1px"></line><line x1="906.7066666666667" y1="0" x2="906.7066666666667" y2="5" style="visibility: inherit;" fill="rgb(0, 0, 0)" stroke="rgb(204, 204, 204)" stroke-width="1px"></line><line x1="976.4533333333334" y1="0" x2="976.4533333333334" y2="5" style="visibility: inherit;" fill="rgb(0, 0, 0)" stroke="rgb(204, 204, 204)" stroke-width="1px"></line><line x1="1046.2" y1="0" x2="1046.2" y2="5" style="visibility: inherit;" fill="rgb(0, 0, 0)" stroke="rgb(204, 204, 204)" stroke-width="1px"></line></g><g transform="translate(0, 8)"><text x="0" y="0" dx="0em" dy="0.95em" style="text-anchor: middle; visibility: hidden; font-family: Roboto, sans-serif; font-size: 12px; font-weight: 200;" fill="rgb(255, 255, 255)" stroke="none" stroke-width="1px">-2</text><text x="69.74666666666667" y="0" dx="0em" dy="0.95em" style="text-anchor: middle; visibility: inherit; font-family: Roboto, sans-serif; font-size: 12px; font-weight: 200;" fill="rgb(255, 255, 255)" stroke="none" stroke-width="1px">0</text><text x="139.49333333333334" y="0" dx="0em" dy="0.95em" style="text-anchor: middle; visibility: inherit; font-family: Roboto, sans-serif; font-size: 12px; font-weight: 200;" fill="rgb(255, 255, 255)" stroke="none" stroke-width="1px">2</text><text x="209.24" y="0" dx="0em" dy="0.95em" style="text-anchor: middle; visibility: inherit; font-family: Roboto, sans-serif; font-size: 12px; font-weight: 200;" fill="rgb(255, 255, 255)" stroke="none" stroke-width="1px">4</text><text x="278.9866666666667" y="0" dx="0em" dy="0.95em" style="text-anchor: middle; visibility: inherit; font-family: Roboto, sans-serif; font-size: 12px; font-weight: 200;" fill="rgb(255, 255, 255)" stroke="none" stroke-width="1px">6</text><text x="348.73333333333335" y="0" dx="0em" dy="0.95em" style="text-anchor: middle; visibility: inherit; font-family: Roboto, sans-serif; font-size: 12px; font-weight: 200;" fill="rgb(255, 255, 255)" stroke="none" stroke-width="1px">8</text><text x="418.48" y="0" dx="0em" dy="0.95em" style="text-anchor: middle; visibility: inherit; font-family: Roboto, sans-serif; font-size: 12px; font-weight: 200;" fill="rgb(255, 255, 255)" stroke="none" stroke-width="1px">10</text><text x="488.2266666666667" y="0" dx="0em" dy="0.95em" style="text-anchor: middle; visibility: inherit; font-family: Roboto, sans-serif; font-size: 12px; font-weight: 200;" fill="rgb(255, 255, 255)" stroke="none" stroke-width="1px">12</text><text x="557.9733333333334" y="0" dx="0em" dy="0.95em" style="text-anchor: middle; visibility: inherit; font-family: Roboto, sans-serif; font-size: 12px; font-weight: 200;" fill="rgb(255, 255, 255)" stroke="none" stroke-width="1px">14</text><text x="627.72" y="0" dx="0em" dy="0.95em" style="text-anchor: middle; visibility: inherit; font-family: Roboto, sans-serif; font-size: 12px; font-weight: 200;" fill="rgb(255, 255, 255)" stroke="none" stroke-width="1px">16</text><text x="697.4666666666667" y="0" dx="0em" dy="0.95em" style="text-anchor: middle; visibility: inherit; font-family: Roboto, sans-serif; font-size: 12px; font-weight: 200;" fill="rgb(255, 255, 255)" stroke="none" stroke-width="1px">18</text><text x="767.2133333333334" y="0" dx="0em" dy="0.95em" style="text-anchor: middle; visibility: inherit; font-family: Roboto, sans-serif; font-size: 12px; font-weight: 200;" fill="rgb(255, 255, 255)" stroke="none" stroke-width="1px">20</text><text x="836.96" y="0" dx="0em" dy="0.95em" style="text-anchor: middle; visibility: inherit; font-family: Roboto, sans-serif; font-size: 12px; font-weight: 200;" fill="rgb(255, 255, 255)" stroke="none" stroke-width="1px">22</text><text x="906.7066666666667" y="0" dx="0em" dy="0.95em" style="text-anchor: middle; visibility: inherit; font-family: Roboto, sans-serif; font-size: 12px; font-weight: 200;" fill="rgb(255, 255, 255)" stroke="none" stroke-width="1px">24</text><text x="976.4533333333334" y="0" dx="0em" dy="0.95em" style="text-anchor: middle; visibility: inherit; font-family: Roboto, sans-serif; font-size: 12px; font-weight: 200;" fill="rgb(255, 255, 255)" stroke="none" stroke-width="1px">26</text><text x="1046.2" y="0" dx="0em" dy="0.95em" style="text-anchor: middle; visibility: hidden; font-family: Roboto, sans-serif; font-size: 12px; font-weight: 200;" fill="rgb(255, 255, 255)" stroke="none" stroke-width="1px">28</text></g><line x1="0" y1="0" x2="1046.2" y2="0" fill="rgb(0, 0, 0)" stroke="rgb(204, 204, 204)" stroke-width="1px"></line></g></g></g></g></svg>