<svg viewBox="0 0 1106.2000732421875 400" xmlns="http://www.w3.org/2000/svg"><g><g><g><g><g><line x1="41.171875" y1="307.5078279990124" x2="36.171875" y2="307.5078279990124" style="visibility: inherit;" fill="rgb(0, 0, 0)" stroke="rgb(204, 204, 204)" stroke-width="1px"></line><line x1="41.171875" y1="200.0760840924764" x2="36.171875" y2="200.0760840924764" style="visibility: inherit;" fill="rgb(0, 0, 0)" stroke="rgb(204, 204, 204)" stroke-width="1px"></line><line x1="41.171875" y1="112.29795793659943" x2="36.171875" y2="112.29795793659943" style="visibility: inherit;" fill="rgb(0, 0, 0)" stroke="rgb(204, 204, 204)" stroke-width="1px"></line><line x1="41.171875" y1="38.08260974174507" x2="36.171875" y2="38.08260974174507" style="visibility: inherit;" fill="rgb(0, 0, 0)" stroke="rgb(204, 204, 204)" stroke-width="1px"></line></g><g transform="translate(31.171875, 0)"><text x="0" y="307.5078279990124" dx="0em" dy="0.3em" style="text-anchor: end; visibility: inherit; font-family: Roboto, sans-serif; font-size: 12px; font-weight: 200;" fill="rgb(255, 255, 255)" stroke="none" stroke-width="1px">0.4</text><text x="0" y="200.0760840924764" dx="0em" dy="0.3em" style="text-anchor: end; visibility: inherit; font-family: Roboto, sans-serif; font-size: 12px; font-weight: 200;" fill="rgb(255, 255, 255)" stroke="none" stroke-width="1px">0.5</text><text x="0" y="112.29795793659943" dx="0em" dy="0.3em" style="text-anchor: end; visibility: inherit; font-family: Roboto, sans-serif; font-size: 12px; font-weight: 200;" fill="rgb(255, 255, 255)" stroke="none" stroke-width="1px">0.6</text><text x="0" y="38.08260974174507" dx="0em" dy="0.3em" style="text-anchor: end; visibility: inherit; font-family: Roboto, sans-serif; font-size: 12px; font-weight: 200;" fill="rgb(255, 255, 255)" stroke="none" stroke-width="1px">0.7</text></g><line x1="41.171875" y1="0" x2="41.171875" y2="377" fill="rgb(0, 0, 0)" stroke="rgb(204, 204, 204)" stroke-width="1px"></line></g></g><g transform="translate(41, 0)" clip-path="url(#clip_0)"><clipPath id="clip_0"><rect width="1065" height="377"></rect></clipPath><g><g><g><line x1="0" y1="0" x2="0" y2="377" fill="rgb(0, 0, 0)" stroke="rgb(189, 189, 189)" stroke-width="1px" opacity="0.25"></line><line x1="71.001875" y1="0" x2="71.001875" y2="377" fill="rgb(0, 0, 0)" stroke="rgb(189, 189, 189)" stroke-width="1px" opacity="0.25"></line><line x1="142.00375" y1="0" x2="142.00375" y2="377" fill="rgb(0, 0, 0)" stroke="rgb(189, 189, 189)" stroke-width="1px" opacity="0.25"></line><line x1="213.005625" y1="0" x2="213.005625" y2="377" fill="rgb(0, 0, 0)" stroke="rgb(189, 189, 189)" stroke-width="1px" opacity="0.25"></line><line x1="284.0075" y1="0" x2="284.0075" y2="377" fill="rgb(0, 0, 0)" stroke="rgb(189, 189, 189)" stroke-width="1px" opacity="0.25"></line><line x1="355.009375" y1="0" x2="355.009375" y2="377" fill="rgb(0, 0, 0)" stroke="rgb(189, 189, 189)" stroke-width="1px" opacity="0.25"></line><line x1="426.01125" y1="0" x2="426.01125" y2="377" fill="rgb(0, 0, 0)" stroke="rgb(189, 189, 189)" stroke-width="1px" opacity="0.25"></line><line x1="497.013125" y1="0" x2="497.013125" y2="377" fill="rgb(0, 0, 0)" stroke="rgb(189, 189, 189)" stroke-width="1px" opacity="0.25"></line><line x1="568.015" y1="0" x2="568.015" y2="377" fill="rgb(0, 0, 0)" stroke="rgb(189, 189, 189)" stroke-width="1px" opacity="0.25"></line><line x1="639.016875" y1="0" x2="639.016875" y2="377" fill="rgb(0, 0, 0)" stroke="rgb(189, 189, 189)" stroke-width="1px" opacity="0.25"></line><line x1="710.01875" y1="0" x2="710.01875" y2="377" fill="rgb(0, 0, 0)" stroke="rgb(189, 189, 189)" stroke-width="1px" opacity="0.25"></line><line x1="781.020625" y1="0" x2="781.020625" y2="377" fill="rgb(0, 0, 0)" stroke="rgb(189, 189, 189)" stroke-width="1px" opacity="0.25"></line><line x1="852.0225" y1="0" x2="852.0225" y2="377" fill="rgb(0, 0, 0)" stroke="rgb(189, 189, 189)" stroke-width="1px" opacity="0.25"></line><line x1="923.0243750000001" y1="0" x2="923.0243750000001" y2="377" fill="rgb(0, 0, 0)" stroke="rgb(189, 189, 189)" stroke-width="1px" opacity="0.25"></line><line x1="994.02625" y1="0" x2="994.02625" y2="377" fill="rgb(0, 0, 0)" stroke="rgb(189, 189, 189)" stroke-width="1px" opacity="0.25"></line><line x1="1065.028125" y1="0" x2="1065.028125" y2="377" fill="rgb(0, 0, 0)" stroke="rgb(189, 189, 189)" stroke-width="1px" opacity="0.25"></line></g><g><line x1="0" y1="307.5078279990124" x2="1065.028125" y2="307.5078279990124" fill="rgb(0, 0, 0)" stroke="rgb(189, 189, 189)" stroke-width="1px" opacity="0.25"></line><line x1="0" y1="200.0760840924764" x2="1065.028125" y2="200.0760840924764" fill="rgb(0, 0, 0)" stroke="rgb(189, 189, 189)" stroke-width="1px" opacity="0.25"></line><line x1="0" y1="112.29795793659943" x2="1065.028125" y2="112.29795793659943" fill="rgb(0, 0, 0)" stroke="rgb(189, 189, 189)" stroke-width="1px" opacity="0.25"></line><line x1="0" y1="38.08260974174507" x2="1065.028125" y2="38.08260974174507" fill="rgb(0, 0, 0)" stroke="rgb(189, 189, 189)" stroke-width="1px" opacity="0.25"></line></g></g></g><g><g><line x1="71.001875" y1="0" x2="71.001875" y2="377" fill="rgb(0, 0, 0)" stroke="rgb(153, 153, 153)" stroke-width="1.5px"></line></g></g><g><g><g><g><g><path stroke="rgb(0, 119, 187)" stroke-width="2px" d="M71.001875,47.0467413964278L106.5028125,50.68914047544342L142.00375,57.9795382514444L177.5046875,69.46350606465684L213.005625,76.39277071903139L248.5065625,87.80371037397481L284.0075,96.1531314787037L319.5084375,105.17408580374367L355.009375,110.49690238225001L390.5103125,130.6586246446067L426.01125,133.85289427551058L461.51218750000004,145.86624220107655L497.013125,164.91717479755502L532.5140625,176.10692820428847L568.015,173.50068449321265L603.5159375000001,177.11839261391324L639.016875,199.97662451025002L674.5178125,220.60287364722916L710.01875,233.70384844645932L745.5196875,241.9942586216114L781.020625,253.74097382181114L816.5215625000001,275.4866223586801L852.0225,286.38272354263773L887.5234375000001,295.3614751634627L923.0243750000001,312.6441159339618L958.5253125,323.14285714285717L994.02625,313.77370570776486L1029.5271875,329.5645849678137" style="fill: none;" fill="none"></path></g><g><path stroke="rgb(51, 187, 238)" stroke-width="2px" d="M71.001875,49.05717545400179L106.5028125,50.663644375959684L142.00375,56.38144356688841L177.5046875,62.74185986845501L213.005625,71.38757037743407L248.5065625,83.73698295769114L284.0075,99.08782504335866L319.5084375,115.95424141017881L355.009375,127.56633106557506L390.5103125,126.57821705710836L426.01125,133.86474678756727L461.51218750000004,146.34478780373888L497.013125,155.5591767426683L532.5140625,174.7808222001187L568.015,186.44816287318972L603.5159375000001,206.288223372105L639.016875,223.47825982955453L674.5178125,240.08669661838294L710.01875,258.8086994527803L745.5196875,274.6216758177841L781.020625,288.98721636527796L816.5215625000001,295.73008298016305L852.0225,310.63295743379416L887.5234375000001,316.97591649036406L923.0243750000001,340.03841616916395L958.5253125,364.9691643687929L994.02625,382.9772878947097" style="fill: none;" fill="none"></path></g><g><path stroke="rgb(0, 153, 136)" stroke-width="2px" d="M71.001875,48.35280270232558L106.5028125,57.48877456938263L142.00375,57.71371691835915L177.5046875,64.89336141994706L213.005625,72.19506079446847L248.5065625,81.82070655722195L284.0075,95.3928194535231L319.5084375,107.69118309790319L355.009375,117.21510709410721L390.5103125,127.21548877603962L426.01125,140.84266154839833L461.51218750000004,156.39821239175015L497.013125,175.12160596029182L532.5140625,190.19630144831825L568.015,195.50011440615583L603.5159375000001,207.16159690536549L639.016875,227.63538833623167L674.5178125,239.56832809123082L710.01875,249.18419578155758L745.5196875,255.71678438911076L781.020625,268.25437743489044L816.5215625000001,281.0579533167752L852.0225,290.5016337975654L887.5234375000001,310.85356015342126L923.0243750000001,314.35949380041006L958.5253125,335.92990653033553L994.02625,346.8454579794466L1029.5271875,333.3513136213102" style="fill: none;" fill="none"></path></g><g><path stroke="rgb(255, 112, 67)" stroke-width="2px" d="M71.001875,47.89097498396733L106.5028125,55.62902509970238L142.00375,62.67750838941075L177.5046875,74.34426005722857L213.005625,85.34075322342402L248.5065625,96.668319566744L284.0075,101.36078384949258L319.5084375,111.52703706896126L355.009375,117.06354679376796L390.5103125,128.23665410021698L426.01125,139.3425195959383L461.51218750000004,157.04433601401215L497.013125,157.96895751643007L532.5140625,162.341734080095L568.015,155.71837346101688L603.5159375000001,166.2392815622096L639.016875,179.52770342455406L674.5178125,193.4256344097651L710.01875,200.34168677500992L745.5196875,202.21381407440873L781.020625,212.97861966464868L816.5215625000001,224.83992399606026L852.0225,241.62028445156753L887.5234375000001,254.87715230246724L923.0243750000001,263.62130754288853L958.5253125,269.57484225006345L994.02625,287.8366505178147L1029.5271875,289.22616209301907" style="fill: none;" fill="none"></path></g><g><path stroke="rgb(204, 51, 17)" stroke-width="2px" d="M71.001875,50.025918613220554L106.5028125,53.857142857142875L142.00375,63.62467563702283L177.5046875,72.15255614371169L213.005625,83.4768270129894L248.5065625,90.82633637996355L284.0075,100.89674833597445L319.5084375,115.71234961365626L355.009375,126.2402231127282L390.5103125,141.72824457424042L426.01125,160.96184446155294L461.51218750000004,170.50400993674134L497.013125,170.97931206167905L532.5140625,186.01233806957381L568.015,189.18644000656624L603.5159375000001,201.82337648697478L639.016875,219.62316334273137L674.5178125,218.32715765524628L710.01875,232.79037662863485L745.5196875,239.24584421806247L781.020625,251.48849109233782L816.5215625000001,263.5228449672131L852.0225,275.78140295627117L887.5234375000001,288.4148171768926L923.0243750000001,301.57299844652016L958.5253125,317.66394596074576L994.02625,321.52104016724286L1029.5271875,338.57620246192926" style="fill: none;" fill="none"></path></g><g><path stroke="rgb(238, 51, 119)" stroke-width="2px" d="M71.001875,50.60629229230055L106.5028125,62.84898677643569L142.00375,71.57195787350564L177.5046875,80.39881252558082L213.005625,93.21999706381362L248.5065625,105.73855938119442L284.0075,112.13594038053284L319.5084375,122.3610847779281L355.009375,130.28100963059887L390.5103125,137.96051216736984L426.01125,146.0606364441042L461.51218750000004,154.311389796386L497.013125,156.56290178460443L532.5140625,157.74481722979968L568.015,164.96839741657774L603.5159375000001,165.4691765296877L639.016875,180.91714783215625L674.5178125,188.07531191829526L710.01875,193.83743817225476L745.5196875,204.98999826108556L781.020625,209.10474043190433L816.5215625000001,216.53216483588963L852.0225,229.11152702642798L887.5234375000001,245.4445478902136L923.0243750000001,257.73510942089405L958.5253125,267.219687775297L994.02625,285.35214840096916L1029.5271875,291.09010196900186" style="fill: none;" fill="none"></path></g><g><path stroke="rgb(187, 187, 187)" stroke-width="2px" d="M71.001875,43.858344066128964L106.5028125,49.54028005777185L142.00375,52.667142878622876L177.5046875,54.4343032405725L213.005625,63.58595996131829L248.5065625,80.74737486697103L284.0075,95.5370455003229L319.5084375,108.3287372773974L355.009375,127.38623536316332L390.5103125,144.57887790002417L426.01125,161.23118847934637L461.51218750000004,168.30415371736012L497.013125,174.6181088951237L532.5140625,181.4335722115823L568.015,192.24583974345984L603.5159375000001,205.08806256141943L639.016875,202.8729264649209L674.5178125,203.38002815201347L710.01875,224.26994968115707L745.5196875,226.3395453422732L781.020625,247.78366856122227L816.5215625000001,263.363390510426L852.0225,274.1220845505268L887.5234375000001,290.9202929761297L923.0243750000001,309.60345093638057L958.5253125,319.96926330227274L994.02625,331.85150275837844L1029.5271875,328.96955760798306" style="fill: none;" fill="none"></path></g><g><path stroke="rgb(0, 119, 187)" stroke-width="2px" d="M71.001875,53.6066304546719L106.5028125,59.367995553762L142.00375,62.892940915689216L177.5046875,66.9483465003253L213.005625,69.50945314821587L248.5065625,71.360684575812L284.0075,76.33457774605955L319.5084375,85.827578723188L355.009375,92.45734036213109L390.5103125,102.7346040082324L426.01125,102.84906387618528L461.51218750000004,116.03250344355023L497.013125,118.30662665718035L532.5140625,134.30591966019807L568.015,136.4312508790637L603.5159375000001,150.90766290537078L639.016875,160.15921331801368L674.5178125,175.14064399464527L710.01875,192.1907970270823L745.5196875,207.36482702980143L781.020625,222.2823027481356L816.5215625000001,240.67844294511184L852.0225,238.8094143154664L887.5234375000001,249.13291215389077L923.0243750000001,274.49581356681597L958.5253125,299.93484407978724L994.02625,306.5548307932973L1029.5271875,329.05127759629164" style="fill: none;" fill="none"></path></g></g></g></g><g opacity="0.2"><g><g><g><path stroke="rgb(0, 119, 187)" stroke-width="2px" d="M71.001875,47.0467413964278L106.5028125,52.887880939877036L142.00375,65.08373647370728L177.5046875,83.32876075509289L213.005625,85.59237283646854L248.5065625,104.04871591640662L284.0075,108.35027744381993L319.5084375,118.63721710428432L355.009375,118.45600574983416L390.5103125,162.24605456538052L426.01125,138.6550304105677L461.51218750000004,164.39893361382173L497.013125,194.9186998961398L532.5140625,193.37185018803123L568.015,169.6206137202861L603.5159375000001,182.59385140783635L639.016875,236.42668779230883L674.5178125,253.2944415576824L710.01875,254.04690159643732L745.5196875,254.7030678310057L781.020625,271.91588827262404L816.5215625000001,310.0647457558967L852.0225,303.20345947967917L887.5234375000001,309.1514871840485L923.0243750000001,339.7899826613664L958.5253125,339.3330841630897L994.02625,300.05324136433944L1029.5271875,354.266606531011" style="fill: none;" fill="none"></path></g><g><path stroke="rgb(51, 187, 238)" stroke-width="2px" d="M71.001875,49.05717545400179L106.5028125,51.63010502839361L142.00375,61.93516480596868L177.5046875,70.33083498008247L213.005625,82.91426174856677L248.5065625,101.3603057197083L284.0075,121.9267431714232L319.5084375,141.6554255672598L355.009375,145.2198417454173L390.5103125,125.11471418329614L426.01125,144.9374372715909L461.51218750000004,165.62160207345966L497.013125,169.68882405102838L532.5140625,205.0926742385106L568.015,204.48267316039642L603.5159375000001,237.65573790438117L639.016875,250.46412988705447L674.5178125,266.1211442154254L710.01875,288.3287736569082L745.5196875,299.3582326859663L781.020625,311.37183994038844L816.5215625000001,306.02459957806826L852.0225,333.8893142911903L887.5234375000001,326.6497731215492L923.0243750000001,376.84575955900533L958.5253125,404.96673666140157L994.02625,411.31904719677226L1029.5271875,376.39503565600126" style="fill: none;" fill="none"></path></g><g><path stroke="rgb(0, 153, 136)" stroke-width="2px" d="M71.001875,48.35280270232558L106.5028125,63.054748001372786L142.00375,57.92976049449753L177.5046875,73.47593986191053L213.005625,81.89793690754347L248.5065625,95.46188357468392L284.0075,115.4910376365096L319.5084375,126.20474079716739L355.009375,131.61408289418492L390.5103125,142.45897737473274L426.01125,161.9041248684126L461.51218750000004,180.62605684633309L497.013125,204.58080073434908L532.5140625,213.7005912852794L568.015,203.56064903821357L603.5159375000001,225.19252998118438L639.016875,260.0678526053885L674.5178125,258.0381301864906L710.01875,263.9764573972927L745.5196875,265.68431870092166L781.020625,287.6943286213562L816.5215625000001,300.924866207169L852.0225,305.02363887446523L887.5234375000001,343.09126311591405L923.0243750000001,319.666708463361L958.5253125,370.213383662033L994.02625,363.69729591669864L1029.5271875,313.793818970926" style="fill: none;" fill="none"></path></g><g><path stroke="rgb(255, 112, 67)" stroke-width="2px" d="M71.001875,47.89097498396733L106.5028125,60.332265080079445L142.00375,69.54253978927073L177.5046875,88.43618596658412L213.005625,100.08652007831891L248.5065625,112.79119663414279L284.0075,108.15155794628143L319.5084375,126.74513643644184L355.009375,125.34680245873926L390.5103125,145.32099676009815L426.01125,156.3913764311045L461.51218750000004,184.77672347499188L497.013125,159.3561971548235L532.5140625,168.96755549554248L568.015,145.9586856019078L603.5159375000001,182.4569442090551L639.016875,200.16846687365964L674.5178125,215.05125967955945L710.01875,210.90460696333977L745.5196875,205.03555345928746L781.020625,229.59042233817794L816.5215625000001,243.1980670621651L852.0225,267.9408094572769L887.5234375000001,275.47291767326556L923.0243750000001,277.04266026016927L958.5253125,278.6454757165989L994.02625,316.59768467247574L1029.5271875,291.3179756673466" style="fill: none;" fill="none"></path></g><g><path stroke="rgb(204, 51, 17)" stroke-width="2px" d="M71.001875,50.025918613220554L106.5028125,56.17059749917699L142.00375,73.19170023446178L177.5046875,82.37852587150091L213.005625,98.67441054536118L248.5065625,101.18192881786594L284.0075,115.6737370777482L319.5084375,138.16494468086609L355.009375,142.199408772276L390.5103125,165.6864160048811L426.01125,191.14495985407504L461.51218750000004,185.1274507733982L497.013125,171.69159121458603L532.5140625,209.44900511964076L568.015,193.98339723796678L603.5159375000001,221.41393913056586L639.016875,247.6129507330797L674.5178125,216.38999437301325L710.01875,255.33167596577968L745.5196875,249.09369540922836L781.020625,270.4560337432732L816.5215625000001,282.157500518054L852.0225,294.77486419420677L887.5234375000001,308.00897834728954L923.0243750000001,322.0100603091936L958.5253125,342.8559184291573L994.02625,327.36523705893626L1029.5271875,365.3482025781934" style="fill: none;" fill="none"></path></g><g><path stroke="rgb(238, 51, 119)" stroke-width="2px" d="M71.001875,50.606292292300466L106.5028125,70.34687882831109L142.00375,80.09737196487762L177.5046875,90.9905942230462L213.005625,110.49030274020734L248.5065625,123.61101582149227L284.0075,121.43456978021698L319.5084375,137.66971075532126L355.009375,142.20439622054278L390.5103125,149.59455055897854L426.01125,158.39620937443635L461.51218750000004,166.91236266569416L497.013125,159.95261527656692L532.5140625,159.5208216931144L568.015,176.00238738217584L603.5159375000001,166.2209692960912L639.016875,205.0532398797876L674.5178125,199.01428139843625L710.01875,202.61113459643155L745.5196875,222.2176567442266L781.020625,215.34332343877304L816.5215625000001,227.89241831604775L852.0225,248.61890563599422L887.5234375000001,271.03226834657227L923.0243750000001,276.7799628897192L958.5253125,281.8063297293886L994.02625,313.89933134019947L1029.5271875,299.8273205509908" style="fill: none;" fill="none"></path></g><g><path stroke="rgb(187, 187, 187)" stroke-width="2px" d="M71.001875,43.858344066128964L106.5028125,52.98191015321123L142.00375,55.688158660285566L177.5046875,56.520817285526284L213.005625,75.80233585646478L248.5065625,105.54371175020812L284.0075,117.508519352551L319.5084375,127.61011475586807L355.009375,156.94514032172032L390.5103125,171.29709608020062L426.01125,187.1798648853079L461.51218750000004,179.07267872990278L497.013125,184.2258979365034L532.5140625,191.8274156548019L568.015,208.92032224108323L603.5159375000001,225.00790064262245L639.016875,199.57014439635134L674.5178125,204.14155454834537L710.01875,257.4059160532389L745.5196875,229.46052531513394L781.020625,281.8532941465755L816.5215625000001,287.720560670352L852.0225,290.7245792933824L887.5234375000001,317.27024086134656L923.0243750000001,339.06207152289176L958.5253125,335.9488073915295L994.02625,350.24346321436326L1029.5271875,324.67873462133514" style="fill: none;" fill="none"></path></g><g><path stroke="rgb(0, 119, 187)" stroke-width="2px" d="M71.001875,53.6066304546719L106.5028125,62.8582013061194L142.00375,66.30134312265368L177.5046875,71.76162666001169L213.005625,72.87387175842433L248.5065625,73.93339563100773L284.0075,83.53781115450154L319.5084375,100.01275770471746L355.009375,102.40464019146307L390.5103125,118.41168233856577L426.01125,103.0197660812207L461.51218750000004,136.43440321044142L497.013125,121.7305840584227L532.5140625,159.31464112713192L568.015,139.63442307332758L603.5159375000001,173.4618155250729L639.016875,174.37459262402962L674.5178125,198.52083993218898L710.01875,218.9518003408772L745.5196875,231.06062601790342L781.020625,245.56181058390948L816.5215625000001,269.6611259557353L852.0225,236.01944253958527L887.5234375000001,265.0453404435416L923.0243750000001,315.23602844579284L958.5253125,340.8061672881092L994.02625,316.65866104121807L1029.5271875,364.8987749371007" style="fill: none;" fill="none"></path></g></g></g></g></g></g><g transform="translate(41, 377)" clip-path="url(#clip_1)"><clipPath id="clip_1"><rect width="1065" height="23"></rect></clipPath><g><g><line x1="0" y1="0" x2="0" y2="5" style="visibility: inherit;" fill="rgb(0, 0, 0)" stroke="rgb(204, 204, 204)" stroke-width="1px"></line><line x1="71.001875" y1="0" x2="71.001875" y2="5" style="visibility: inherit;" fill="rgb(0, 0, 0)" stroke="rgb(204, 204, 204)" stroke-width="1px"></line><line x1="142.00375" y1="0" x2="142.00375" y2="5" style="visibility: inherit;" fill="rgb(0, 0, 0)" stroke="rgb(204, 204, 204)" stroke-width="1px"></line><line x1="213.005625" y1="0" x2="213.005625" y2="5" style="visibility: inherit;" fill="rgb(0, 0, 0)" stroke="rgb(204, 204, 204)" stroke-width="1px"></line><line x1="284.0075" y1="0" x2="284.0075" y2="5" style="visibility: inherit;" fill="rgb(0, 0, 0)" stroke="rgb(204, 204, 204)" stroke-width="1px"></line><line x1="355.009375" y1="0" x2="355.009375" y2="5" style="visibility: inherit;" fill="rgb(0, 0, 0)" stroke="rgb(204, 204, 204)" stroke-width="1px"></line><line x1="426.01125" y1="0" x2="426.01125" y2="5" style="visibility: inherit;" fill="rgb(0, 0, 0)" stroke="rgb(204, 204, 204)" stroke-width="1px"></line><line x1="497.013125" y1="0" x2="497.013125" y2="5" style="visibility: inherit;" fill="rgb(0, 0, 0)" stroke="rgb(204, 204, 204)" stroke-width="1px"></line><line x1="568.015" y1="0" x2="568.015" y2="5" style="visibility: inherit;" fill="rgb(0, 0, 0)" stroke="rgb(204, 204, 204)" stroke-width="1px"></line><line x1="639.016875" y1="0" x2="639.016875" y2="5" style="visibility: inherit;" fill="rgb(0, 0, 0)" stroke="rgb(204, 204, 204)" stroke-width="1px"></line><line x1="710.01875" y1="0" x2="710.01875" y2="5" style="visibility: inherit;" fill="rgb(0, 0, 0)" stroke="rgb(204, 204, 204)" stroke-width="1px"></line><line x1="781.020625" y1="0" x2="781.020625" y2="5" style="visibility: inherit;" fill="rgb(0, 0, 0)" stroke="rgb(204, 204, 204)" stroke-width="1px"></line><line x1="852.0225" y1="0" x2="852.0225" y2="5" style="visibility: inherit;" fill="rgb(0, 0, 0)" stroke="rgb(204, 204, 204)" stroke-width="1px"></line><line x1="923.0243750000001" y1="0" x2="923.0243750000001" y2="5" style="visibility: inherit;" fill="rgb(0, 0, 0)" stroke="rgb(204, 204, 204)" stroke-width="1px"></line><line x1="994.02625" y1="0" x2="994.02625" y2="5" style="visibility: inherit;" fill="rgb(0, 0, 0)" stroke="rgb(204, 204, 204)" stroke-width="1px"></line><line x1="1065.028125" y1="0" x2="1065.028125" y2="5" style="visibility: inherit;" fill="rgb(0, 0, 0)" stroke="rgb(204, 204, 204)" stroke-width="1px"></line></g><g transform="translate(0, 8)"><text x="0" y="0" dx="0em" dy="0.95em" style="text-anchor: middle; visibility: hidden; font-family: Roboto, sans-serif; font-size: 12px; font-weight: 200;" fill="rgb(255, 255, 255)" stroke="none" stroke-width="1px">-2</text><text x="71.001875" y="0" dx="0em" dy="0.95em" style="text-anchor: middle; visibility: inherit; font-family: Roboto, sans-serif; font-size: 12px; font-weight: 200;" fill="rgb(255, 255, 255)" stroke="none" stroke-width="1px">0</text><text x="142.00375" y="0" dx="0em" dy="0.95em" style="text-anchor: middle; visibility: inherit; font-family: Roboto, sans-serif; font-size: 12px; font-weight: 200;" fill="rgb(255, 255, 255)" stroke="none" stroke-width="1px">2</text><text x="213.005625" y="0" dx="0em" dy="0.95em" style="text-anchor: middle; visibility: inherit; font-family: Roboto, sans-serif; font-size: 12px; font-weight: 200;" fill="rgb(255, 255, 255)" stroke="none" stroke-width="1px">4</text><text x="284.0075" y="0" dx="0em" dy="0.95em" style="text-anchor: middle; visibility: inherit; font-family: Roboto, sans-serif; font-size: 12px; font-weight: 200;" fill="rgb(255, 255, 255)" stroke="none" stroke-width="1px">6</text><text x="355.009375" y="0" dx="0em" dy="0.95em" style="text-anchor: middle; visibility: inherit; font-family: Roboto, sans-serif; font-size: 12px; font-weight: 200;" fill="rgb(255, 255, 255)" stroke="none" stroke-width="1px">8</text><text x="426.01125" y="0" dx="0em" dy="0.95em" style="text-anchor: middle; visibility: inherit; font-family: Roboto, sans-serif; font-size: 12px; font-weight: 200;" fill="rgb(255, 255, 255)" stroke="none" stroke-width="1px">10</text><text x="497.013125" y="0" dx="0em" dy="0.95em" style="text-anchor: middle; visibility: inherit; font-family: Roboto, sans-serif; font-size: 12px; font-weight: 200;" fill="rgb(255, 255, 255)" stroke="none" stroke-width="1px">12</text><text x="568.015" y="0" dx="0em" dy="0.95em" style="text-anchor: middle; visibility: inherit; font-family: Roboto, sans-serif; font-size: 12px; font-weight: 200;" fill="rgb(255, 255, 255)" stroke="none" stroke-width="1px">14</text><text x="639.016875" y="0" dx="0em" dy="0.95em" style="text-anchor: middle; visibility: inherit; font-family: Roboto, sans-serif; font-size: 12px; font-weight: 200;" fill="rgb(255, 255, 255)" stroke="none" stroke-width="1px">16</text><text x="710.01875" y="0" dx="0em" dy="0.95em" style="text-anchor: middle; visibility: inherit; font-family: Roboto, sans-serif; font-size: 12px; font-weight: 200;" fill="rgb(255, 255, 255)" stroke="none" stroke-width="1px">18</text><text x="781.020625" y="0" dx="0em" dy="0.95em" style="text-anchor: middle; visibility: inherit; font-family: Roboto, sans-serif; font-size: 12px; font-weight: 200;" fill="rgb(255, 255, 255)" stroke="none" stroke-width="1px">20</text><text x="852.0225" y="0" dx="0em" dy="0.95em" style="text-anchor: middle; visibility: inherit; font-family: Roboto, sans-serif; font-size: 12px; font-weight: 200;" fill="rgb(255, 255, 255)" stroke="none" stroke-width="1px">22</text><text x="923.0243750000001" y="0" dx="0em" dy="0.95em" style="text-anchor: middle; visibility: inherit; font-family: Roboto, sans-serif; font-size: 12px; font-weight: 200;" fill="rgb(255, 255, 255)" stroke="none" stroke-width="1px">24</text><text x="994.02625" y="0" dx="0em" dy="0.95em" style="text-anchor: middle; visibility: inherit; font-family: Roboto, sans-serif; font-size: 12px; font-weight: 200;" fill="rgb(255, 255, 255)" stroke="none" stroke-width="1px">26</text><text x="1065.028125" y="0" dx="0em" dy="0.95em" style="text-anchor: middle; visibility: hidden; font-family: Roboto, sans-serif; font-size: 12px; font-weight: 200;" fill="rgb(255, 255, 255)" stroke="none" stroke-width="1px">28</text></g><line x1="0" y1="0" x2="1065.028125" y2="0" fill="rgb(0, 0, 0)" stroke="rgb(204, 204, 204)" stroke-width="1px"></line></g></g></g></g></svg>