<svg viewBox="0 0 1106.2000732421875 400" xmlns="http://www.w3.org/2000/svg"><g><g><g><g><g><line x1="50" y1="377" x2="45" y2="377" style="visibility: inherit;" fill="rgb(0, 0, 0)" stroke="rgb(204, 204, 204)" stroke-width="1px"></line><line x1="50" y1="351.8666666666666" x2="45" y2="351.8666666666666" style="visibility: inherit;" fill="rgb(0, 0, 0)" stroke="rgb(204, 204, 204)" stroke-width="1px"></line><line x1="50" y1="326.7333333333334" x2="45" y2="326.7333333333334" style="visibility: inherit;" fill="rgb(0, 0, 0)" stroke="rgb(204, 204, 204)" stroke-width="1px"></line><line x1="50" y1="301.6000000000001" x2="45" y2="301.6000000000001" style="visibility: inherit;" fill="rgb(0, 0, 0)" stroke="rgb(204, 204, 204)" stroke-width="1px"></line><line x1="50" y1="276.4666666666667" x2="45" y2="276.4666666666667" style="visibility: inherit;" fill="rgb(0, 0, 0)" stroke="rgb(204, 204, 204)" stroke-width="1px"></line><line x1="50" y1="251.33333333333337" x2="45" y2="251.33333333333337" style="visibility: inherit;" fill="rgb(0, 0, 0)" stroke="rgb(204, 204, 204)" stroke-width="1px"></line><line x1="50" y1="226.19999999999996" x2="45" y2="226.19999999999996" style="visibility: inherit;" fill="rgb(0, 0, 0)" stroke="rgb(204, 204, 204)" stroke-width="1px"></line><line x1="50" y1="201.06666666666663" x2="45" y2="201.06666666666663" style="visibility: inherit;" fill="rgb(0, 0, 0)" stroke="rgb(204, 204, 204)" stroke-width="1px"></line><line x1="50" y1="175.93333333333337" x2="45" y2="175.93333333333337" style="visibility: inherit;" fill="rgb(0, 0, 0)" stroke="rgb(204, 204, 204)" stroke-width="1px"></line><line x1="50" y1="150.8" x2="45" y2="150.8" style="visibility: inherit;" fill="rgb(0, 0, 0)" stroke="rgb(204, 204, 204)" stroke-width="1px"></line><line x1="50" y1="125.66666666666669" x2="45" y2="125.66666666666669" style="visibility: inherit;" fill="rgb(0, 0, 0)" stroke="rgb(204, 204, 204)" stroke-width="1px"></line><line x1="50" y1="100.53333333333332" x2="45" y2="100.53333333333332" style="visibility: inherit;" fill="rgb(0, 0, 0)" stroke="rgb(204, 204, 204)" stroke-width="1px"></line><line x1="50" y1="75.39999999999993" x2="45" y2="75.39999999999993" style="visibility: inherit;" fill="rgb(0, 0, 0)" stroke="rgb(204, 204, 204)" stroke-width="1px"></line><line x1="50" y1="50.26666666666657" x2="45" y2="50.26666666666657" style="visibility: inherit;" fill="rgb(0, 0, 0)" stroke="rgb(204, 204, 204)" stroke-width="1px"></line><line x1="50" y1="25.13333333333337" x2="45" y2="25.13333333333337" style="visibility: inherit;" fill="rgb(0, 0, 0)" stroke="rgb(204, 204, 204)" stroke-width="1px"></line><line x1="50" y1="0" x2="45" y2="0" style="visibility: inherit;" fill="rgb(0, 0, 0)" stroke="rgb(204, 204, 204)" stroke-width="1px"></line></g><g transform="translate(40, 0)"><text x="0" y="377" dx="0em" dy="0.3em" style="text-anchor: end; visibility: hidden; font-family: Roboto, sans-serif; font-size: 12px; font-weight: 200;" fill="rgb(255, 255, 255)" stroke="none" stroke-width="1px">0.54</text><text x="0" y="351.8666666666666" dx="0em" dy="0.3em" style="text-anchor: end; visibility: inherit; font-family: Roboto, sans-serif; font-size: 12px; font-weight: 200;" fill="rgb(255, 255, 255)" stroke="none" stroke-width="1px">0.56</text><text x="0" y="326.7333333333334" dx="0em" dy="0.3em" style="text-anchor: end; visibility: inherit; font-family: Roboto, sans-serif; font-size: 12px; font-weight: 200;" fill="rgb(255, 255, 255)" stroke="none" stroke-width="1px">0.58</text><text x="0" y="301.6000000000001" dx="0em" dy="0.3em" style="text-anchor: end; visibility: inherit; font-family: Roboto, sans-serif; font-size: 12px; font-weight: 200;" fill="rgb(255, 255, 255)" stroke="none" stroke-width="1px">0.6</text><text x="0" y="276.4666666666667" dx="0em" dy="0.3em" style="text-anchor: end; visibility: inherit; font-family: Roboto, sans-serif; font-size: 12px; font-weight: 200;" fill="rgb(255, 255, 255)" stroke="none" stroke-width="1px">0.62</text><text x="0" y="251.33333333333337" dx="0em" dy="0.3em" style="text-anchor: end; visibility: inherit; font-family: Roboto, sans-serif; font-size: 12px; font-weight: 200;" fill="rgb(255, 255, 255)" stroke="none" stroke-width="1px">0.64</text><text x="0" y="226.19999999999996" dx="0em" dy="0.3em" style="text-anchor: end; visibility: inherit; font-family: Roboto, sans-serif; font-size: 12px; font-weight: 200;" fill="rgb(255, 255, 255)" stroke="none" stroke-width="1px">0.66</text><text x="0" y="201.06666666666663" dx="0em" dy="0.3em" style="text-anchor: end; visibility: inherit; font-family: Roboto, sans-serif; font-size: 12px; font-weight: 200;" fill="rgb(255, 255, 255)" stroke="none" stroke-width="1px">0.68</text><text x="0" y="175.93333333333337" dx="0em" dy="0.3em" style="text-anchor: end; visibility: inherit; font-family: Roboto, sans-serif; font-size: 12px; font-weight: 200;" fill="rgb(255, 255, 255)" stroke="none" stroke-width="1px">0.7</text><text x="0" y="150.8" dx="0em" dy="0.3em" style="text-anchor: end; visibility: inherit; font-family: Roboto, sans-serif; font-size: 12px; font-weight: 200;" fill="rgb(255, 255, 255)" stroke="none" stroke-width="1px">0.72</text><text x="0" y="125.66666666666669" dx="0em" dy="0.3em" style="text-anchor: end; visibility: inherit; font-family: Roboto, sans-serif; font-size: 12px; font-weight: 200;" fill="rgb(255, 255, 255)" stroke="none" stroke-width="1px">0.74</text><text x="0" y="100.53333333333332" dx="0em" dy="0.3em" style="text-anchor: end; visibility: inherit; font-family: Roboto, sans-serif; font-size: 12px; font-weight: 200;" fill="rgb(255, 255, 255)" stroke="none" stroke-width="1px">0.76</text><text x="0" y="75.39999999999993" dx="0em" dy="0.3em" style="text-anchor: end; visibility: inherit; font-family: Roboto, sans-serif; font-size: 12px; font-weight: 200;" fill="rgb(255, 255, 255)" stroke="none" stroke-width="1px">0.78</text><text x="0" y="50.26666666666657" dx="0em" dy="0.3em" style="text-anchor: end; visibility: inherit; font-family: Roboto, sans-serif; font-size: 12px; font-weight: 200;" fill="rgb(255, 255, 255)" stroke="none" stroke-width="1px">0.8</text><text x="0" y="25.13333333333337" dx="0em" dy="0.3em" style="text-anchor: end; visibility: inherit; font-family: Roboto, sans-serif; font-size: 12px; font-weight: 200;" fill="rgb(255, 255, 255)" stroke="none" stroke-width="1px">0.82</text><text x="0" y="0" dx="0em" dy="0.3em" style="text-anchor: end; visibility: hidden; font-family: Roboto, sans-serif; font-size: 12px; font-weight: 200;" fill="rgb(255, 255, 255)" stroke="none" stroke-width="1px">0.84</text></g><line x1="50" y1="0" x2="50" y2="377" fill="rgb(0, 0, 0)" stroke="rgb(204, 204, 204)" stroke-width="1px"></line></g></g><g transform="translate(50, 0)" clip-path="url(#clip_0)"><clipPath id="clip_0"><rect width="1056" height="377"></rect></clipPath><g><g><g><line x1="0" y1="0" x2="0" y2="377" fill="rgb(0, 0, 0)" stroke="rgb(189, 189, 189)" stroke-width="1px" opacity="0.25"></line><line x1="70.41333333333334" y1="0" x2="70.41333333333334" y2="377" fill="rgb(0, 0, 0)" stroke="rgb(189, 189, 189)" stroke-width="1px" opacity="0.25"></line><line x1="140.82666666666668" y1="0" x2="140.82666666666668" y2="377" fill="rgb(0, 0, 0)" stroke="rgb(189, 189, 189)" stroke-width="1px" opacity="0.25"></line><line x1="211.24" y1="0" x2="211.24" y2="377" fill="rgb(0, 0, 0)" stroke="rgb(189, 189, 189)" stroke-width="1px" opacity="0.25"></line><line x1="281.65333333333336" y1="0" x2="281.65333333333336" y2="377" fill="rgb(0, 0, 0)" stroke="rgb(189, 189, 189)" stroke-width="1px" opacity="0.25"></line><line x1="352.06666666666666" y1="0" x2="352.06666666666666" y2="377" fill="rgb(0, 0, 0)" stroke="rgb(189, 189, 189)" stroke-width="1px" opacity="0.25"></line><line x1="422.48" y1="0" x2="422.48" y2="377" fill="rgb(0, 0, 0)" stroke="rgb(189, 189, 189)" stroke-width="1px" opacity="0.25"></line><line x1="492.8933333333334" y1="0" x2="492.8933333333334" y2="377" fill="rgb(0, 0, 0)" stroke="rgb(189, 189, 189)" stroke-width="1px" opacity="0.25"></line><line x1="563.3066666666667" y1="0" x2="563.3066666666667" y2="377" fill="rgb(0, 0, 0)" stroke="rgb(189, 189, 189)" stroke-width="1px" opacity="0.25"></line><line x1="633.72" y1="0" x2="633.72" y2="377" fill="rgb(0, 0, 0)" stroke="rgb(189, 189, 189)" stroke-width="1px" opacity="0.25"></line><line x1="704.1333333333333" y1="0" x2="704.1333333333333" y2="377" fill="rgb(0, 0, 0)" stroke="rgb(189, 189, 189)" stroke-width="1px" opacity="0.25"></line><line x1="774.5466666666666" y1="0" x2="774.5466666666666" y2="377" fill="rgb(0, 0, 0)" stroke="rgb(189, 189, 189)" stroke-width="1px" opacity="0.25"></line><line x1="844.96" y1="0" x2="844.96" y2="377" fill="rgb(0, 0, 0)" stroke="rgb(189, 189, 189)" stroke-width="1px" opacity="0.25"></line><line x1="915.3733333333334" y1="0" x2="915.3733333333334" y2="377" fill="rgb(0, 0, 0)" stroke="rgb(189, 189, 189)" stroke-width="1px" opacity="0.25"></line><line x1="985.7866666666667" y1="0" x2="985.7866666666667" y2="377" fill="rgb(0, 0, 0)" stroke="rgb(189, 189, 189)" stroke-width="1px" opacity="0.25"></line><line x1="1056.2" y1="0" x2="1056.2" y2="377" fill="rgb(0, 0, 0)" stroke="rgb(189, 189, 189)" stroke-width="1px" opacity="0.25"></line></g><g><line x1="0" y1="377" x2="1056.2" y2="377" fill="rgb(0, 0, 0)" stroke="rgb(189, 189, 189)" stroke-width="1px" opacity="0.25"></line><line x1="0" y1="351.8666666666666" x2="1056.2" y2="351.8666666666666" fill="rgb(0, 0, 0)" stroke="rgb(189, 189, 189)" stroke-width="1px" opacity="0.25"></line><line x1="0" y1="326.7333333333334" x2="1056.2" y2="326.7333333333334" fill="rgb(0, 0, 0)" stroke="rgb(189, 189, 189)" stroke-width="1px" opacity="0.25"></line><line x1="0" y1="301.6000000000001" x2="1056.2" y2="301.6000000000001" fill="rgb(0, 0, 0)" stroke="rgb(189, 189, 189)" stroke-width="1px" opacity="0.25"></line><line x1="0" y1="276.4666666666667" x2="1056.2" y2="276.4666666666667" fill="rgb(0, 0, 0)" stroke="rgb(189, 189, 189)" stroke-width="1px" opacity="0.25"></line><line x1="0" y1="251.33333333333337" x2="1056.2" y2="251.33333333333337" fill="rgb(0, 0, 0)" stroke="rgb(189, 189, 189)" stroke-width="1px" opacity="0.25"></line><line x1="0" y1="226.19999999999996" x2="1056.2" y2="226.19999999999996" fill="rgb(0, 0, 0)" stroke="rgb(189, 189, 189)" stroke-width="1px" opacity="0.25"></line><line x1="0" y1="201.06666666666663" x2="1056.2" y2="201.06666666666663" fill="rgb(0, 0, 0)" stroke="rgb(189, 189, 189)" stroke-width="1px" opacity="0.25"></line><line x1="0" y1="175.93333333333337" x2="1056.2" y2="175.93333333333337" fill="rgb(0, 0, 0)" stroke="rgb(189, 189, 189)" stroke-width="1px" opacity="0.25"></line><line x1="0" y1="150.8" x2="1056.2" y2="150.8" fill="rgb(0, 0, 0)" stroke="rgb(189, 189, 189)" stroke-width="1px" opacity="0.25"></line><line x1="0" y1="125.66666666666669" x2="1056.2" y2="125.66666666666669" fill="rgb(0, 0, 0)" stroke="rgb(189, 189, 189)" stroke-width="1px" opacity="0.25"></line><line x1="0" y1="100.53333333333332" x2="1056.2" y2="100.53333333333332" fill="rgb(0, 0, 0)" stroke="rgb(189, 189, 189)" stroke-width="1px" opacity="0.25"></line><line x1="0" y1="75.39999999999993" x2="1056.2" y2="75.39999999999993" fill="rgb(0, 0, 0)" stroke="rgb(189, 189, 189)" stroke-width="1px" opacity="0.25"></line><line x1="0" y1="50.26666666666657" x2="1056.2" y2="50.26666666666657" fill="rgb(0, 0, 0)" stroke="rgb(189, 189, 189)" stroke-width="1px" opacity="0.25"></line><line x1="0" y1="25.13333333333337" x2="1056.2" y2="25.13333333333337" fill="rgb(0, 0, 0)" stroke="rgb(189, 189, 189)" stroke-width="1px" opacity="0.25"></line><line x1="0" y1="0" x2="1056.2" y2="0" fill="rgb(0, 0, 0)" stroke="rgb(189, 189, 189)" stroke-width="1px" opacity="0.25"></line></g></g></g><g><g><line x1="0" y1="1055.6000000000004" x2="1056.2" y2="1055.6000000000004" fill="rgb(0, 0, 0)" stroke="rgb(153, 153, 153)" stroke-width="1.5px"></line></g></g><g><g><line x1="70.41333333333334" y1="0" x2="70.41333333333334" y2="377" fill="rgb(0, 0, 0)" stroke="rgb(153, 153, 153)" stroke-width="1.5px"></line></g></g><g><g><g><g><g><path stroke="rgb(0, 119, 187)" stroke-width="2px" d="M70.41333333333334,366.25736035505935L105.62,366.25736035505923L140.82666666666668,329.67484307581066L176.03333333333333,310.6450472139261L211.24,277.4780451232627L246.4466666666667,259.3092255032428L281.65333333333336,239.13052244219188L316.86,222.78510914118613L352.06666666666666,223.82948652382618L387.2733333333333,196.60665748597495L422.48,196.53874488643294L457.6866666666667,180.3616044271222L492.8933333333334,152.03623655374656L528.1,140.10038262100153L563.3066666666667,141.50276519478544L598.5133333333333,140.33052651204832L633.72,120.50368563027762L668.9266666666666,100.55819887482994L704.1333333333333,92.11460472183222L739.34,83.52646199642808L774.5466666666666,70.82606870053141L809.7533333333334,57.16789712062586L844.96,52.49532379927437L880.1666666666667,51.20131918547153L915.3733333333334,42.877355834550784L950.58,30.83860744109294L985.7866666666667,34.18194263119664L1020.9933333333333,19.583336650978925" style="fill: none;" fill="none"></path></g><g><path stroke="rgb(51, 187, 238)" stroke-width="2px" d="M70.41333333333334,383.86829413572957L105.62,365.7855921000243L140.82666666666668,332.6527623016007L176.03333333333333,312.2544373837465L211.24,288.7557375664186L246.4466666666667,270.6052521608281L281.65333333333336,245.77800906646678L316.86,219.05169886155082L352.06666666666666,195.68175387100257L387.2733333333333,196.99834912356857L422.48,186.16815435772915L457.6866666666667,166.58429136761265L492.8933333333334,155.86894747096022L528.1,132.83105799749148L563.3066666666667,131.10166346702295L598.5133333333333,118.99166375380442L633.72,100.65624691133114L668.9266666666666,90.66342458199229L704.1333333333333,69.06917455402541L739.34,55.107090854821024L774.5466666666666,45.220625622528374L809.7533333333334,35.76665217110918L844.96,25.062612636126L880.1666666666667,24.17513414545608L915.3733333333334,10.560204597273868L950.58,-6.162655033449322" style="fill: none;" fill="none"></path></g><g><path stroke="rgb(0, 153, 136)" stroke-width="2px" d="M70.41333333333334,356.1938947200776L105.62,345.1870611071587L140.82666666666668,325.7726752884534L176.03333333333333,314.89514507160465L211.24,294.07026517207544L246.4466666666667,275.2733159166145L281.65333333333336,252.66635737018422L316.86,234.39647313234514L352.06666666666666,229.73243820140155L387.2733333333333,215.82721056988126L422.48,197.94304917886006L457.6866666666667,166.07494509240274L492.8933333333334,145.48705474318527L528.1,131.13725654024185L563.3066666666667,123.03798409818936L598.5133333333333,109.12125106727231L633.72,92.21839410099041L668.9266666666666,83.5881731351611L704.1333333333333,72.3721991451444L739.34,62.62392457552671L774.5466666666666,55.768826792996784L809.7533333333334,49.13998357050372L844.96,41.640518905298904L880.1666666666667,33.11550264421232L915.3733333333334,33.53539937861329L950.58,28.25246231125367L985.7866666666667,22.566855580446465L1020.9933333333333,29.72206202349892" style="fill: none;" fill="none"></path></g><g><path stroke="rgb(255, 112, 67)" stroke-width="2px" d="M70.41333333333334,386.38414181868245L105.62,339.21195094883444L140.82666666666668,317.0699098163721L176.03333333333333,283.02158222943564L211.24,264.0180236040596L246.4466666666667,246.74655350149217L281.65333333333336,237.43190823182684L316.86,217.68342582911936L352.06666666666666,211.63999611270484L387.2733333333333,196.40985193089196L422.48,180.76589649422087L457.6866666666667,160.82631464402343L492.8933333333334,158.96693191238376L528.1,156.3421652700811L563.3066666666667,156.2788409967876L598.5133333333333,138.6249321032671L633.72,126.52601057586804L668.9266666666666,118.76474783257362L704.1333333333333,112.59889408802978L739.34,109.90599818024685L774.5466666666666,99.23307330206175L809.7533333333334,96.85487749708297L844.96,78.82325420764637L880.1666666666667,70.01705905441459L915.3733333333334,65.23653963502245L950.58,54.82068075813109L985.7866666666667,43.036306235857914L1020.9933333333333,48.041765535685556" style="fill: none;" fill="none"></path></g><g><path stroke="rgb(204, 51, 17)" stroke-width="2px" d="M70.41333333333334,368.7732080380122L105.62,319.24240996539595L140.82666666666668,296.3783462198414L176.03333333333333,283.97889927055917L211.24,262.92330930031704L246.4466666666667,242.9443888985434L281.65333333333336,226.9118385366178L316.86,205.81385263277187L352.06666666666666,189.826119971762L387.2733333333333,178.31230208439982L422.48,153.7736717969277L457.6866666666667,142.63746470996713L492.8933333333334,138.4904129021476L528.1,119.38800404314715L563.3066666666667,119.51451695809581L598.5133333333333,102.47776476220318L633.72,90.74902580623692L668.9266666666666,96.29356923471212L704.1333333333333,87.54313009350108L739.34,82.7963958137709L774.5466666666666,76.4262022953041L809.7533333333334,69.58511866379278L844.96,56.92657643802102L880.1666666666667,49.33151508259474L915.3733333333334,38.23327872935261L950.58,24.026801187499654L985.7866666666667,24.55999110038765L1020.9933333333333,17.33235701509888" style="fill: none;" fill="none"></path></g><g><path stroke="rgb(238, 51, 119)" stroke-width="2px" d="M70.41333333333334,364.9994365135829L105.62,313.1100312381982L140.82666666666668,289.5239448795513L176.03333333333333,267.5565185312839L211.24,254.7149415824802L246.4466666666667,234.48549286249278L281.65333333333336,226.59289327016626L316.86,209.7187867190548L352.06666666666666,202.82730999399473L387.2733333333333,189.1187626273864L422.48,176.9068638492255L457.6866666666667,165.06973631213071L492.8933333333334,152.94569643659477L528.1,147.19210720644443L563.3066666666667,142.2326219351824L598.5133333333333,146.30478496214494L633.72,125.09434557650981L668.9266666666666,122.43482275602747L704.1333333333333,112.28484858289025L739.34,104.18250819680593L774.5466666666666,97.81175183481778L809.7533333333334,93.48621130250073L844.96,86.36236182810441L880.1666666666667,73.53416549573302L915.3733333333334,65.33411563162761L950.58,62.92995260803261L985.7866666666667,46.39235587115L1020.9933333333333,48.04271511015079" style="fill: none;" fill="none"></path></g><g><path stroke="rgb(187, 187, 187)" stroke-width="2px" d="M140.82666666666668,377.62998054270855L176.03333333333333,344.07714813316574L211.24,314.96001791712473L246.4466666666667,277.3701122319713L281.65333333333336,250.7943158819151L316.86,228.16838806861776L352.06666666666666,191.9653881098917L387.2733333333333,166.93489438248528L422.48,154.53882307112602L457.6866666666667,149.14709439270212L492.8933333333334,143.4004405937545L528.1,135.9287424165292L563.3066666666667,123.39494289296141L598.5133333333333,116.38174742022373L633.72,121.2337115314444L668.9266666666666,114.58314213470632L704.1333333333333,93.48442601330676L739.34,91.3929658125874L774.5466666666666,74.53954081219437L809.7533333333334,59.39596083642522L844.96,57.857543072852216L880.1666666666667,37.31079527869961L915.3733333333334,30.517689550035403L950.58,27.951349657897012L985.7866666666667,18.863997750645137L1020.9933333333333,18.946460860247534" style="fill: none;" fill="none"></path></g><g><path stroke="rgb(0, 119, 187)" stroke-width="2px" d="M70.41333333333334,363.74143776893624L105.62,318.927900916338L140.82666666666668,312.91104580723504L176.03333333333333,306.2099209014108L211.24,300.6095486533386L246.4466666666667,297.5416755636321L281.65333333333336,283.37133877868456L316.86,266.93910442472327L352.06666666666666,257.7664929968071L387.2733333333333,232.57942648156995L422.48,225.64503796015305L457.6866666666667,212.42373103871438L492.8933333333334,210.05149338870513L528.1,194.02677490789452L563.3066666666667,187.9438281019782L598.5133333333333,166.1766760585892L633.72,155.1333344629235L668.9266666666666,136.43120054699526L704.1333333333333,121.18553428310082L739.34,108.01322564108834L774.5466666666666,95.07834293856594L809.7533333333334,79.76995252843429L844.96,90.71198765017975L880.1666666666667,78.15662042810885L915.3733333333334,59.05050592616696L950.58,45.57419040974163L985.7866666666667,41.010606173367755L1020.9933333333333,25.693212481240565" style="fill: none;" fill="none"></path></g></g></g></g><g opacity="0.2"><g><g><g><path stroke="rgb(0, 119, 187)" stroke-width="2px" d="M70.41333333333334,366.25736035505935L105.62,366.25736035505935L140.82666666666668,294.55562648773196L176.03333333333333,288.26600728034975L211.24,234.17520719369253L246.4466666666667,234.17520719369253L281.65333333333336,210.27465420564016L316.86,198.9533396323522L352.06666666666666,225.36974030335745L387.2733333333333,156.18392902215322L422.48,196.43749194939932L457.6866666666667,156.18392902215322L492.8933333333334,109.64067198435464L528.1,122.21998530228933L563.3066666666667,143.60469060738882L598.5133333333333,138.57299524148306L633.72,90.77181436220803L668.9266666666666,70.64503289858499L704.1333333333333,79.45049978892007L739.34,70.64503289858499L774.5466666666666,51.77617527643839L809.7533333333334,36.6810891787211L844.96,45.486556069056185L880.1666666666667,49.260327593485506L915.3733333333334,30.391469971338854L950.58,12.78053619066869L985.7866666666667,39.19693686167398L1020.9933333333333,-2.3145499070485545" style="fill: none;" fill="none"></path></g><g><path stroke="rgb(51, 187, 238)" stroke-width="2px" d="M70.41333333333334,383.86829413572957L105.62,354.93597087860115L140.82666666666668,300.84524569511416L176.03333333333333,288.26600728034975L211.24,258.0758350849152L246.4466666666667,245.49659667015078L281.65333333333336,210.27465420564016L316.86,180.0844820102056L352.06666666666666,161.21562438805898L387.2733333333333,198.9533396323522L422.48,170.02109127839407L457.6866666666667,137.31507140000662L492.8933333333334,139.8309190829595L528.1,98.31935741106668L563.3066666666667,128.50960450967153L598.5133333333333,100.83520509401956L633.72,73.16088058153787L668.9266666666666,75.67672826449075L704.1333333333333,36.6810891787211L739.34,34.16524149576822L774.5466666666666,30.391469971338854L809.7533333333334,21.58600308100377L844.96,9.006764666239368L880.1666666666667,22.84392692248021L915.3733333333334,-9.862092955907197" style="fill: none;" fill="none"></path></g><g><path stroke="rgb(0, 153, 136)" stroke-width="2px" d="M70.41333333333334,356.1938947200776L105.62,338.58296093940737L140.82666666666668,307.13486490249636L176.03333333333333,302.1031695365906L211.24,266.88130197525027L246.4466666666667,249.2703681945801L281.65333333333336,220.33804493745168L316.86,207.75880652268728L352.06666666666666,222.85389262040457L387.2733333333333,195.17956810792288L422.48,171.2790151198705L457.6866666666667,118.44621377786001L492.8933333333334,114.67244225343069L528.1,109.64067198435464L563.3066666666667,110.89859582583108L598.5133333333333,88.25596667925515L633.72,66.87126137415567L668.9266666666666,70.64503289858499L704.1333333333333,55.54994680086771L739.34,48.002403752009066L774.5466666666666,45.486556069056185L809.7533333333334,39.19693686167398L844.96,30.391469971338854L880.1666666666667,20.32807923952733L915.3733333333334,34.16524149576822L950.58,20.32807923952733L985.7866666666667,14.03846003214513L1020.9933333333333,40.45486070315042" style="fill: none;" fill="none"></path></g><g><path stroke="rgb(255, 112, 67)" stroke-width="2px" d="M70.41333333333334,386.38414181868245L105.62,310.9086364269257L140.82666666666668,295.8135503292084L176.03333333333333,242.9807489871979L211.24,239.20697746276858L246.4466666666667,222.85389262040457L281.65333333333336,224.111816461881L316.86,188.88994890054067L352.06666666666666,202.72711115678152L387.2733333333333,173.7948628028234L422.48,157.44185286362966L457.6866666666667,131.0254521926244L492.8933333333334,156.18392902215322L528.1,152.4101574977239L563.3066666666667,156.18392902215322L598.5133333333333,112.15651966730752L633.72,108.3827481428782L668.9266666666666,107.12482430140176L704.1333333333333,103.35105277697244L739.34,105.86690045992532L774.5466666666666,83.22427131334939L809.7533333333334,93.28766204516091L844.96,51.77617527643839L880.1666666666667,56.80787064234415L915.3733333333334,58.06579448382059L950.58,39.19693686167398L985.7866666666667,25.359774605433092L1020.9933333333333,55.54994680086771" style="fill: none;" fill="none"></path></g><g><path stroke="rgb(204, 51, 17)" stroke-width="2px" d="M70.41333333333334,368.7732080380122L105.62,289.5239311218262L140.82666666666668,274.4288450241089L176.03333333333333,269.39714965820315L211.24,235.43313103516897L246.4466666666667,215.30634957154592L281.65333333333336,203.98503499825796L316.86,175.05278664429983L352.06666666666666,166.24731975396475L387.2733333333333,161.21562438805898L422.48,117.18828993638357L457.6866666666667,125.99375682671865L492.8933333333334,132.28337603410085L528.1,90.77181436220803L563.3066666666667,119.70413761933645L598.5133333333333,76.93465210596719L633.72,73.16088058153787L668.9266666666666,104.60897661844888L704.1333333333333,74.41880442301431L739.34,75.67672826449075L774.5466666666666,66.87126137415567L809.7533333333334,59.32371832529703L844.96,37.93901302019754L880.1666666666667,37.93901302019754L915.3733333333334,21.58600308100377L950.58,2.7171454588571655L985.7866666666667,25.359774605433092L1020.9933333333333,6.490916983286486" style="fill: none;" fill="none"></path></g><g><path stroke="rgb(238, 51, 119)" stroke-width="2px" d="M70.41333333333334,364.9994365135829L105.62,281.97638807296755L140.82666666666668,266.88130197525027L176.03333333333333,241.72282514572146L211.24,237.94897871812188L246.4466666666667,206.50088268121084L281.65333333333336,215.30634957154592L316.86,185.11617737611135L352.06666666666666,192.66372042497L387.2733333333333,168.76316743691763L422.48,158.6997767051061L457.6866666666667,147.37846213181814L492.8933333333334,134.79922371705374L528.1,138.57299524148306L563.3066666666667,134.79922371705374L598.5133333333333,152.4101574977239L633.72,93.28766204516091L668.9266666666666,118.44621377786001L704.1333333333333,97.06143356959024L739.34,92.02973820368447L774.5466666666666,88.25596667925515L809.7533333333334,86.99804283777871L844.96,75.67672826449075L880.1666666666667,54.29202295939127L915.3733333333334,53.03409911791483L950.58,59.32371832529703L985.7866666666667,21.58600308100377L1020.9933333333333,50.51825143496195" style="fill: none;" fill="none"></path></g><g><path stroke="rgb(187, 187, 187)" stroke-width="2px" d="M105.62,398.96338023344686L140.82666666666668,361.22559008598336L176.03333333333333,304.6190172195435L211.24,276.9446927070618L246.4466666666667,225.36974030335745L281.65333333333336,212.79050188859304L316.86,195.17956810792288L352.06666666666666,138.57299524148306L387.2733333333333,129.76752835114797L422.48,136.05714755853018L457.6866666666667,141.08884292443594L492.8933333333334,134.79922371705374L528.1,124.73583298524221L563.3066666666667,104.60897661844888L598.5133333333333,105.86690045992532L633.72,128.50960450967153L668.9266666666666,104.60897661844888L704.1333333333333,61.83956600824991L739.34,88.25596667925515L774.5466666666666,49.260327593485506L809.7533333333334,36.6810891787211L844.96,55.54994680086771L880.1666666666667,6.490916983286486L915.3733333333334,20.32807923952733L950.58,24.10185076395665L985.7866666666667,5.232993141810046L1020.9933333333333,19.07015539805089" style="fill: none;" fill="none"></path></g><g><path stroke="rgb(0, 119, 187)" stroke-width="2px" d="M70.41333333333334,363.74143776893624L105.62,292.0397788047791L140.82666666666668,307.13486490249636L176.03333333333333,298.3293980121613L211.24,293.2977026462555L246.4466666666667,293.2977026462555L281.65333333333336,263.10753045082095L316.86,242.9807489871979L352.06666666666666,244.23867282867434L387.2733333333333,195.17956810792288L422.48,215.30634957154592L457.6866666666667,192.66372042497L492.8933333333334,206.50088268121084L528.1,170.02109127839407L563.3066666666667,178.82655816872915L598.5133333333333,133.5412998755773L633.72,138.57299524148306L668.9266666666666,108.3827481428782L704.1333333333333,98.31935741106668L739.34,88.25596667925515L774.5466666666666,75.67672826449075L809.7533333333334,56.80787064234415L844.96,107.12482430140176L880.1666666666667,59.32371832529703L915.3733333333334,30.391469971338854L950.58,25.359774605433092L985.7866666666667,34.16524149576822L1020.9933333333333,2.7171454588571655" style="fill: none;" fill="none"></path></g></g></g></g></g></g><g transform="translate(50, 377)" clip-path="url(#clip_1)"><clipPath id="clip_1"><rect width="1056" height="23"></rect></clipPath><g><g><line x1="0" y1="0" x2="0" y2="5" style="visibility: inherit;" fill="rgb(0, 0, 0)" stroke="rgb(204, 204, 204)" stroke-width="1px"></line><line x1="70.41333333333334" y1="0" x2="70.41333333333334" y2="5" style="visibility: inherit;" fill="rgb(0, 0, 0)" stroke="rgb(204, 204, 204)" stroke-width="1px"></line><line x1="140.82666666666668" y1="0" x2="140.82666666666668" y2="5" style="visibility: inherit;" fill="rgb(0, 0, 0)" stroke="rgb(204, 204, 204)" stroke-width="1px"></line><line x1="211.24" y1="0" x2="211.24" y2="5" style="visibility: inherit;" fill="rgb(0, 0, 0)" stroke="rgb(204, 204, 204)" stroke-width="1px"></line><line x1="281.65333333333336" y1="0" x2="281.65333333333336" y2="5" style="visibility: inherit;" fill="rgb(0, 0, 0)" stroke="rgb(204, 204, 204)" stroke-width="1px"></line><line x1="352.06666666666666" y1="0" x2="352.06666666666666" y2="5" style="visibility: inherit;" fill="rgb(0, 0, 0)" stroke="rgb(204, 204, 204)" stroke-width="1px"></line><line x1="422.48" y1="0" x2="422.48" y2="5" style="visibility: inherit;" fill="rgb(0, 0, 0)" stroke="rgb(204, 204, 204)" stroke-width="1px"></line><line x1="492.8933333333334" y1="0" x2="492.8933333333334" y2="5" style="visibility: inherit;" fill="rgb(0, 0, 0)" stroke="rgb(204, 204, 204)" stroke-width="1px"></line><line x1="563.3066666666667" y1="0" x2="563.3066666666667" y2="5" style="visibility: inherit;" fill="rgb(0, 0, 0)" stroke="rgb(204, 204, 204)" stroke-width="1px"></line><line x1="633.72" y1="0" x2="633.72" y2="5" style="visibility: inherit;" fill="rgb(0, 0, 0)" stroke="rgb(204, 204, 204)" stroke-width="1px"></line><line x1="704.1333333333333" y1="0" x2="704.1333333333333" y2="5" style="visibility: inherit;" fill="rgb(0, 0, 0)" stroke="rgb(204, 204, 204)" stroke-width="1px"></line><line x1="774.5466666666666" y1="0" x2="774.5466666666666" y2="5" style="visibility: inherit;" fill="rgb(0, 0, 0)" stroke="rgb(204, 204, 204)" stroke-width="1px"></line><line x1="844.96" y1="0" x2="844.96" y2="5" style="visibility: inherit;" fill="rgb(0, 0, 0)" stroke="rgb(204, 204, 204)" stroke-width="1px"></line><line x1="915.3733333333334" y1="0" x2="915.3733333333334" y2="5" style="visibility: inherit;" fill="rgb(0, 0, 0)" stroke="rgb(204, 204, 204)" stroke-width="1px"></line><line x1="985.7866666666667" y1="0" x2="985.7866666666667" y2="5" style="visibility: inherit;" fill="rgb(0, 0, 0)" stroke="rgb(204, 204, 204)" stroke-width="1px"></line><line x1="1056.2" y1="0" x2="1056.2" y2="5" style="visibility: inherit;" fill="rgb(0, 0, 0)" stroke="rgb(204, 204, 204)" stroke-width="1px"></line></g><g transform="translate(0, 8)"><text x="0" y="0" dx="0em" dy="0.95em" style="text-anchor: middle; visibility: hidden; font-family: Roboto, sans-serif; font-size: 12px; font-weight: 200;" fill="rgb(255, 255, 255)" stroke="none" stroke-width="1px">-2</text><text x="70.41333333333334" y="0" dx="0em" dy="0.95em" style="text-anchor: middle; visibility: inherit; font-family: Roboto, sans-serif; font-size: 12px; font-weight: 200;" fill="rgb(255, 255, 255)" stroke="none" stroke-width="1px">0</text><text x="140.82666666666668" y="0" dx="0em" dy="0.95em" style="text-anchor: middle; visibility: inherit; font-family: Roboto, sans-serif; font-size: 12px; font-weight: 200;" fill="rgb(255, 255, 255)" stroke="none" stroke-width="1px">2</text><text x="211.24" y="0" dx="0em" dy="0.95em" style="text-anchor: middle; visibility: inherit; font-family: Roboto, sans-serif; font-size: 12px; font-weight: 200;" fill="rgb(255, 255, 255)" stroke="none" stroke-width="1px">4</text><text x="281.65333333333336" y="0" dx="0em" dy="0.95em" style="text-anchor: middle; visibility: inherit; font-family: Roboto, sans-serif; font-size: 12px; font-weight: 200;" fill="rgb(255, 255, 255)" stroke="none" stroke-width="1px">6</text><text x="352.06666666666666" y="0" dx="0em" dy="0.95em" style="text-anchor: middle; visibility: inherit; font-family: Roboto, sans-serif; font-size: 12px; font-weight: 200;" fill="rgb(255, 255, 255)" stroke="none" stroke-width="1px">8</text><text x="422.48" y="0" dx="0em" dy="0.95em" style="text-anchor: middle; visibility: inherit; font-family: Roboto, sans-serif; font-size: 12px; font-weight: 200;" fill="rgb(255, 255, 255)" stroke="none" stroke-width="1px">10</text><text x="492.8933333333334" y="0" dx="0em" dy="0.95em" style="text-anchor: middle; visibility: inherit; font-family: Roboto, sans-serif; font-size: 12px; font-weight: 200;" fill="rgb(255, 255, 255)" stroke="none" stroke-width="1px">12</text><text x="563.3066666666667" y="0" dx="0em" dy="0.95em" style="text-anchor: middle; visibility: inherit; font-family: Roboto, sans-serif; font-size: 12px; font-weight: 200;" fill="rgb(255, 255, 255)" stroke="none" stroke-width="1px">14</text><text x="633.72" y="0" dx="0em" dy="0.95em" style="text-anchor: middle; visibility: inherit; font-family: Roboto, sans-serif; font-size: 12px; font-weight: 200;" fill="rgb(255, 255, 255)" stroke="none" stroke-width="1px">16</text><text x="704.1333333333333" y="0" dx="0em" dy="0.95em" style="text-anchor: middle; visibility: inherit; font-family: Roboto, sans-serif; font-size: 12px; font-weight: 200;" fill="rgb(255, 255, 255)" stroke="none" stroke-width="1px">18</text><text x="774.5466666666666" y="0" dx="0em" dy="0.95em" style="text-anchor: middle; visibility: inherit; font-family: Roboto, sans-serif; font-size: 12px; font-weight: 200;" fill="rgb(255, 255, 255)" stroke="none" stroke-width="1px">20</text><text x="844.96" y="0" dx="0em" dy="0.95em" style="text-anchor: middle; visibility: inherit; font-family: Roboto, sans-serif; font-size: 12px; font-weight: 200;" fill="rgb(255, 255, 255)" stroke="none" stroke-width="1px">22</text><text x="915.3733333333334" y="0" dx="0em" dy="0.95em" style="text-anchor: middle; visibility: inherit; font-family: Roboto, sans-serif; font-size: 12px; font-weight: 200;" fill="rgb(255, 255, 255)" stroke="none" stroke-width="1px">24</text><text x="985.7866666666667" y="0" dx="0em" dy="0.95em" style="text-anchor: middle; visibility: inherit; font-family: Roboto, sans-serif; font-size: 12px; font-weight: 200;" fill="rgb(255, 255, 255)" stroke="none" stroke-width="1px">26</text><text x="1056.2" y="0" dx="0em" dy="0.95em" style="text-anchor: middle; visibility: hidden; font-family: Roboto, sans-serif; font-size: 12px; font-weight: 200;" fill="rgb(255, 255, 255)" stroke="none" stroke-width="1px">28</text></g><line x1="0" y1="0" x2="1056.2" y2="0" fill="rgb(0, 0, 0)" stroke="rgb(204, 204, 204)" stroke-width="1px"></line></g></g></g></g></svg>