<svg viewBox="0 0 1106.2000732421875 400" xmlns="http://www.w3.org/2000/svg"><g><g><g><g><g><line x1="50" y1="377" x2="45" y2="377" style="visibility: inherit;" fill="rgb(0, 0, 0)" stroke="rgb(204, 204, 204)" stroke-width="1px"></line><line x1="50" y1="348" x2="45" y2="348" style="visibility: inherit;" fill="rgb(0, 0, 0)" stroke="rgb(204, 204, 204)" stroke-width="1px"></line><line x1="50" y1="319.0000000000001" x2="45" y2="319.0000000000001" style="visibility: inherit;" fill="rgb(0, 0, 0)" stroke="rgb(204, 204, 204)" stroke-width="1px"></line><line x1="50" y1="290.0000000000001" x2="45" y2="290.0000000000001" style="visibility: inherit;" fill="rgb(0, 0, 0)" stroke="rgb(204, 204, 204)" stroke-width="1px"></line><line x1="50" y1="261.00000000000006" x2="45" y2="261.00000000000006" style="visibility: inherit;" fill="rgb(0, 0, 0)" stroke="rgb(204, 204, 204)" stroke-width="1px"></line><line x1="50" y1="232" x2="45" y2="232" style="visibility: inherit;" fill="rgb(0, 0, 0)" stroke="rgb(204, 204, 204)" stroke-width="1px"></line><line x1="50" y1="203.00000000000003" x2="45" y2="203.00000000000003" style="visibility: inherit;" fill="rgb(0, 0, 0)" stroke="rgb(204, 204, 204)" stroke-width="1px"></line><line x1="50" y1="173.99999999999997" x2="45" y2="173.99999999999997" style="visibility: inherit;" fill="rgb(0, 0, 0)" stroke="rgb(204, 204, 204)" stroke-width="1px"></line><line x1="50" y1="145.0000000000001" x2="45" y2="145.0000000000001" style="visibility: inherit;" fill="rgb(0, 0, 0)" stroke="rgb(204, 204, 204)" stroke-width="1px"></line><line x1="50" y1="116.00000000000009" x2="45" y2="116.00000000000009" style="visibility: inherit;" fill="rgb(0, 0, 0)" stroke="rgb(204, 204, 204)" stroke-width="1px"></line><line x1="50" y1="87.00000000000007" x2="45" y2="87.00000000000007" style="visibility: inherit;" fill="rgb(0, 0, 0)" stroke="rgb(204, 204, 204)" stroke-width="1px"></line><line x1="50" y1="58.00000000000004" x2="45" y2="58.00000000000004" style="visibility: inherit;" fill="rgb(0, 0, 0)" stroke="rgb(204, 204, 204)" stroke-width="1px"></line><line x1="50" y1="29.00000000000002" x2="45" y2="29.00000000000002" style="visibility: inherit;" fill="rgb(0, 0, 0)" stroke="rgb(204, 204, 204)" stroke-width="1px"></line><line x1="50" y1="0" x2="45" y2="0" style="visibility: inherit;" fill="rgb(0, 0, 0)" stroke="rgb(204, 204, 204)" stroke-width="1px"></line></g><g transform="translate(40, 0)"><text x="0" y="377" dx="0em" dy="0.3em" style="text-anchor: end; visibility: hidden; font-family: Roboto, sans-serif; font-size: 12px; font-weight: 200;" fill="rgb(255, 255, 255)" stroke="none" stroke-width="1px">0.54</text><text x="0" y="348" dx="0em" dy="0.3em" style="text-anchor: end; visibility: inherit; font-family: Roboto, sans-serif; font-size: 12px; font-weight: 200;" fill="rgb(255, 255, 255)" stroke="none" stroke-width="1px">0.56</text><text x="0" y="319.0000000000001" dx="0em" dy="0.3em" style="text-anchor: end; visibility: inherit; font-family: Roboto, sans-serif; font-size: 12px; font-weight: 200;" fill="rgb(255, 255, 255)" stroke="none" stroke-width="1px">0.58</text><text x="0" y="290.0000000000001" dx="0em" dy="0.3em" style="text-anchor: end; visibility: inherit; font-family: Roboto, sans-serif; font-size: 12px; font-weight: 200;" fill="rgb(255, 255, 255)" stroke="none" stroke-width="1px">0.6</text><text x="0" y="261.00000000000006" dx="0em" dy="0.3em" style="text-anchor: end; visibility: inherit; font-family: Roboto, sans-serif; font-size: 12px; font-weight: 200;" fill="rgb(255, 255, 255)" stroke="none" stroke-width="1px">0.62</text><text x="0" y="232" dx="0em" dy="0.3em" style="text-anchor: end; visibility: inherit; font-family: Roboto, sans-serif; font-size: 12px; font-weight: 200;" fill="rgb(255, 255, 255)" stroke="none" stroke-width="1px">0.64</text><text x="0" y="203.00000000000003" dx="0em" dy="0.3em" style="text-anchor: end; visibility: inherit; font-family: Roboto, sans-serif; font-size: 12px; font-weight: 200;" fill="rgb(255, 255, 255)" stroke="none" stroke-width="1px">0.66</text><text x="0" y="173.99999999999997" dx="0em" dy="0.3em" style="text-anchor: end; visibility: inherit; font-family: Roboto, sans-serif; font-size: 12px; font-weight: 200;" fill="rgb(255, 255, 255)" stroke="none" stroke-width="1px">0.68</text><text x="0" y="145.0000000000001" dx="0em" dy="0.3em" style="text-anchor: end; visibility: inherit; font-family: Roboto, sans-serif; font-size: 12px; font-weight: 200;" fill="rgb(255, 255, 255)" stroke="none" stroke-width="1px">0.7</text><text x="0" y="116.00000000000009" dx="0em" dy="0.3em" style="text-anchor: end; visibility: inherit; font-family: Roboto, sans-serif; font-size: 12px; font-weight: 200;" fill="rgb(255, 255, 255)" stroke="none" stroke-width="1px">0.72</text><text x="0" y="87.00000000000007" dx="0em" dy="0.3em" style="text-anchor: end; visibility: inherit; font-family: Roboto, sans-serif; font-size: 12px; font-weight: 200;" fill="rgb(255, 255, 255)" stroke="none" stroke-width="1px">0.74</text><text x="0" y="58.00000000000004" dx="0em" dy="0.3em" style="text-anchor: end; visibility: inherit; font-family: Roboto, sans-serif; font-size: 12px; font-weight: 200;" fill="rgb(255, 255, 255)" stroke="none" stroke-width="1px">0.76</text><text x="0" y="29.00000000000002" dx="0em" dy="0.3em" style="text-anchor: end; visibility: inherit; font-family: Roboto, sans-serif; font-size: 12px; font-weight: 200;" fill="rgb(255, 255, 255)" stroke="none" stroke-width="1px">0.78</text><text x="0" y="0" dx="0em" dy="0.3em" style="text-anchor: end; visibility: hidden; font-family: Roboto, sans-serif; font-size: 12px; font-weight: 200;" fill="rgb(255, 255, 255)" stroke="none" stroke-width="1px">0.8</text></g><line x1="50" y1="0" x2="50" y2="377" fill="rgb(0, 0, 0)" stroke="rgb(204, 204, 204)" stroke-width="1px"></line></g></g><g transform="translate(50, 0)" clip-path="url(#clip_0)"><clipPath id="clip_0"><rect width="1056" height="377"></rect></clipPath><g><g><g><line x1="0" y1="0" x2="0" y2="377" fill="rgb(0, 0, 0)" stroke="rgb(189, 189, 189)" stroke-width="1px" opacity="0.25"></line><line x1="70.41333333333334" y1="0" x2="70.41333333333334" y2="377" fill="rgb(0, 0, 0)" stroke="rgb(189, 189, 189)" stroke-width="1px" opacity="0.25"></line><line x1="140.82666666666668" y1="0" x2="140.82666666666668" y2="377" fill="rgb(0, 0, 0)" stroke="rgb(189, 189, 189)" stroke-width="1px" opacity="0.25"></line><line x1="211.24" y1="0" x2="211.24" y2="377" fill="rgb(0, 0, 0)" stroke="rgb(189, 189, 189)" stroke-width="1px" opacity="0.25"></line><line x1="281.65333333333336" y1="0" x2="281.65333333333336" y2="377" fill="rgb(0, 0, 0)" stroke="rgb(189, 189, 189)" stroke-width="1px" opacity="0.25"></line><line x1="352.06666666666666" y1="0" x2="352.06666666666666" y2="377" fill="rgb(0, 0, 0)" stroke="rgb(189, 189, 189)" stroke-width="1px" opacity="0.25"></line><line x1="422.48" y1="0" x2="422.48" y2="377" fill="rgb(0, 0, 0)" stroke="rgb(189, 189, 189)" stroke-width="1px" opacity="0.25"></line><line x1="492.8933333333334" y1="0" x2="492.8933333333334" y2="377" fill="rgb(0, 0, 0)" stroke="rgb(189, 189, 189)" stroke-width="1px" opacity="0.25"></line><line x1="563.3066666666667" y1="0" x2="563.3066666666667" y2="377" fill="rgb(0, 0, 0)" stroke="rgb(189, 189, 189)" stroke-width="1px" opacity="0.25"></line><line x1="633.72" y1="0" x2="633.72" y2="377" fill="rgb(0, 0, 0)" stroke="rgb(189, 189, 189)" stroke-width="1px" opacity="0.25"></line><line x1="704.1333333333333" y1="0" x2="704.1333333333333" y2="377" fill="rgb(0, 0, 0)" stroke="rgb(189, 189, 189)" stroke-width="1px" opacity="0.25"></line><line x1="774.5466666666666" y1="0" x2="774.5466666666666" y2="377" fill="rgb(0, 0, 0)" stroke="rgb(189, 189, 189)" stroke-width="1px" opacity="0.25"></line><line x1="844.96" y1="0" x2="844.96" y2="377" fill="rgb(0, 0, 0)" stroke="rgb(189, 189, 189)" stroke-width="1px" opacity="0.25"></line><line x1="915.3733333333334" y1="0" x2="915.3733333333334" y2="377" fill="rgb(0, 0, 0)" stroke="rgb(189, 189, 189)" stroke-width="1px" opacity="0.25"></line><line x1="985.7866666666667" y1="0" x2="985.7866666666667" y2="377" fill="rgb(0, 0, 0)" stroke="rgb(189, 189, 189)" stroke-width="1px" opacity="0.25"></line><line x1="1056.2" y1="0" x2="1056.2" y2="377" fill="rgb(0, 0, 0)" stroke="rgb(189, 189, 189)" stroke-width="1px" opacity="0.25"></line></g><g><line x1="0" y1="377" x2="1056.2" y2="377" fill="rgb(0, 0, 0)" stroke="rgb(189, 189, 189)" stroke-width="1px" opacity="0.25"></line><line x1="0" y1="348" x2="1056.2" y2="348" fill="rgb(0, 0, 0)" stroke="rgb(189, 189, 189)" stroke-width="1px" opacity="0.25"></line><line x1="0" y1="319.0000000000001" x2="1056.2" y2="319.0000000000001" fill="rgb(0, 0, 0)" stroke="rgb(189, 189, 189)" stroke-width="1px" opacity="0.25"></line><line x1="0" y1="290.0000000000001" x2="1056.2" y2="290.0000000000001" fill="rgb(0, 0, 0)" stroke="rgb(189, 189, 189)" stroke-width="1px" opacity="0.25"></line><line x1="0" y1="261.00000000000006" x2="1056.2" y2="261.00000000000006" fill="rgb(0, 0, 0)" stroke="rgb(189, 189, 189)" stroke-width="1px" opacity="0.25"></line><line x1="0" y1="232" x2="1056.2" y2="232" fill="rgb(0, 0, 0)" stroke="rgb(189, 189, 189)" stroke-width="1px" opacity="0.25"></line><line x1="0" y1="203.00000000000003" x2="1056.2" y2="203.00000000000003" fill="rgb(0, 0, 0)" stroke="rgb(189, 189, 189)" stroke-width="1px" opacity="0.25"></line><line x1="0" y1="173.99999999999997" x2="1056.2" y2="173.99999999999997" fill="rgb(0, 0, 0)" stroke="rgb(189, 189, 189)" stroke-width="1px" opacity="0.25"></line><line x1="0" y1="145.0000000000001" x2="1056.2" y2="145.0000000000001" fill="rgb(0, 0, 0)" stroke="rgb(189, 189, 189)" stroke-width="1px" opacity="0.25"></line><line x1="0" y1="116.00000000000009" x2="1056.2" y2="116.00000000000009" fill="rgb(0, 0, 0)" stroke="rgb(189, 189, 189)" stroke-width="1px" opacity="0.25"></line><line x1="0" y1="87.00000000000007" x2="1056.2" y2="87.00000000000007" fill="rgb(0, 0, 0)" stroke="rgb(189, 189, 189)" stroke-width="1px" opacity="0.25"></line><line x1="0" y1="58.00000000000004" x2="1056.2" y2="58.00000000000004" fill="rgb(0, 0, 0)" stroke="rgb(189, 189, 189)" stroke-width="1px" opacity="0.25"></line><line x1="0" y1="29.00000000000002" x2="1056.2" y2="29.00000000000002" fill="rgb(0, 0, 0)" stroke="rgb(189, 189, 189)" stroke-width="1px" opacity="0.25"></line><line x1="0" y1="0" x2="1056.2" y2="0" fill="rgb(0, 0, 0)" stroke="rgb(189, 189, 189)" stroke-width="1px" opacity="0.25"></line></g></g></g><g><g><line x1="0" y1="1160" x2="1056.2" y2="1160" fill="rgb(0, 0, 0)" stroke="rgb(153, 153, 153)" stroke-width="1.5px"></line></g></g><g><g><line x1="70.41333333333334" y1="0" x2="70.41333333333334" y2="377" fill="rgb(0, 0, 0)" stroke="rgb(153, 153, 153)" stroke-width="1.5px"></line></g></g><g><g><g><g><g><path stroke="rgb(0, 119, 187)" stroke-width="2px" d="M70.41333333333334,351.5415048599244L105.62,335.21268576383596L140.82666666666668,299.11155510921884L176.03333333333333,285.8526933982093L211.24,262.09246300145384L246.4466666666667,230.80681550283504L281.65333333333336,206.42620657960256L316.86,181.61313367553137L352.06666666666666,178.72454868482242L387.2733333333333,169.41668382345563L422.48,148.13537170001788L457.6866666666667,121.45178240531739L492.8933333333334,110.12956747207288L528.1,91.14392867769608L563.3066666666667,97.18770663837836L598.5133333333333,108.94257118100883L633.72,104.96047523826164L668.9266666666666,99.08781387403339L704.1333333333333,89.75844264313123L739.34,80.67754040887992L774.5466666666666,71.74565373497988L809.7533333333334,73.3537362198776L844.96,63.86801084113002L880.1666666666667,55.85429161535347L915.3733333333334,54.529575692905254L950.58,46.18719262620203L985.7866666666667,42.342933551254134L1020.9933333333333,28.42476880323142" style="fill: none;" fill="none"></path></g><g><path stroke="rgb(0, 153, 136)" stroke-width="2px" d="M70.41333333333334,341.3813507556916L105.62,308.72371256351477L140.82666666666668,274.2887879391106L176.03333333333333,225.74552351718444L211.24,190.9129036606227L246.4466666666667,155.9978326142763L281.65333333333336,140.30247975304363L316.86,119.95179973240072L352.06666666666666,117.932721326343L387.2733333333333,95.70630428291776L422.48,87.7010626016395L457.6866666666667,82.91654552175176L492.8933333333334,74.82041934196808L528.1,87.9816532687734L563.3066666666667,70.31420807655198L598.5133333333333,67.84947588400985L633.72,54.176832649688464L668.9266666666666,46.555367229683085L704.1333333333333,45.46667708014823L739.34,29.13726596943466L774.5466666666666,12.372885758436844L809.7533333333334,-4.65256151494962" style="fill: none;" fill="none"></path></g><g><path stroke="rgb(204, 51, 17)" stroke-width="2px" d="M70.41333333333334,370.4104489088059L105.62,327.77403391897684L140.82666666666668,308.7977820391558L176.03333333333333,267.07456001683204L211.24,271.6039514727762L246.4466666666667,265.55923530585846L281.65333333333336,256.1450897118145L316.86,233.54365957264898L352.06666666666666,226.09313696943562L387.2733333333333,205.3160297202009L422.48,185.93813133383912L457.6866666666667,172.02909686823656L492.8933333333334,149.75093066955262L528.1,137.56473864307662L563.3066666666667,120.3846312191948L598.5133333333333,107.17801768994447L633.72,81.8360441471417L668.9266666666666,73.02063685843954L704.1333333333333,60.18396251348743L739.34,69.90053698164968L774.5466666666666,53.0870938562477L809.7533333333334,43.579851915267426L844.96,43.68143503412631L880.1666666666667,48.96763126197072L915.3733333333334,44.01118657596265L950.58,35.231516533884154L985.7866666666667,24.738496634896844L1020.9933333333333,24.829078070438143" style="fill: none;" fill="none"></path></g><g><path stroke="rgb(238, 51, 119)" stroke-width="2px" d="M70.41333333333334,352.99295544624334L105.62,333.94266650080687L140.82666666666668,286.64092864309043L176.03333333333333,276.4449456640903L211.24,254.24697471773524L246.4466666666667,237.8239788637607L281.65333333333336,223.0989849454388L316.86,206.26533014133693L352.06666666666666,172.30181441614926L387.2733333333333,143.96652301251783L422.48,132.31964843470533L457.6866666666667,115.46723017274157L492.8933333333334,108.86732473457408L528.1,98.5215114162906L563.3066666666667,92.3192146086175L598.5133333333333,88.59970343586055L633.72,70.10963515883357L668.9266666666666,54.3724838028752L704.1333333333333,44.931215940857065L739.34,39.84742489957143L774.5466666666666,33.31371140933952L809.7533333333334,24.168284160530717L844.96,21.584028948910472L880.1666666666667,10.744161114713972L915.3733333333334,11.787837793685048L950.58,4.285904753551701L985.7866666666667,13.138112180682134L1020.9933333333333,17.868850247402708" style="fill: none;" fill="none"></path></g><g><path stroke="rgb(51, 187, 238)" stroke-width="2px" d="M70.41333333333334,367.50754773616796L105.62,408.329595476389L140.82666666666668,380.83715188259987L176.03333333333333,350.03137878197083L211.24,305.3600064116498L246.4466666666667,255.92034801656746L281.65333333333336,217.62121508705422L316.86,205.96859081675453L352.06666666666666,193.2386447241451L387.2733333333333,181.59449624054608L422.48,161.2512648247383L457.6866666666667,127.56433282387111L492.8933333333334,109.14318414683775L528.1,95.20072717675005L563.3066666666667,78.12941412088284L598.5133333333333,68.4725088778503L633.72,58.03468139940517L668.9266666666666,41.32161008755396L704.1333333333333,30.133622459262984L739.34,31.549686690149503L774.5466666666666,13.820317021939793L809.7533333333334,-2.622934624834577" style="fill: none;" fill="none"></path></g><g><path style="fill: none;" fill="none" stroke="none" stroke-width="1px"></path></g><g><path stroke="rgb(187, 187, 187)" stroke-width="2px" d="M70.41333333333334,337.0269989967347L105.62,308.90514388680464L140.82666666666668,292.8910525964232L176.03333333333333,263.14709691002105L211.24,250.49395259100072L246.4466666666667,222.247778210793L281.65333333333336,203.18128617032954L316.86,176.14536470267234L352.06666666666666,155.52546856373576L387.2733333333333,139.19854763608552L422.48,118.97731145588514L457.6866666666667,116.20117249951234L492.8933333333334,116.28338024853943L528.1,104.13088940598531L563.3066666666667,88.13265788146795L598.5133333333333,62.85844462941424L633.72,50.02119483207814L668.9266666666666,49.287906212802596L704.1333333333333,59.29909634780975L739.34,41.50072546422792L774.5466666666666,36.62804912433379L809.7533333333334,27.31804509239479L844.96,18.829197001453952L880.1666666666667,9.091267167642528L915.3733333333334,-8.943680789575293" style="fill: none;" fill="none"></path></g><g><path stroke="rgb(0, 119, 187)" stroke-width="2px" d="M70.41333333333334,363.15319597721106L105.62,354.9887324124575L140.82666666666668,347.30565473741416L176.03333333333333,340.58092702618416L211.24,320.7830457663387L246.4466666666667,292.88598859084465L281.65333333333336,272.8236403929219L316.86,269.4187835884017L352.06666666666666,247.47212371429686L387.2733333333333,224.51663249205058L422.48,203.25747017205805L457.6866666666667,184.73297425431667L492.8933333333334,179.4575127255628L528.1,166.41904445355138L563.3066666666667,163.83018584532036L598.5133333333333,148.3397922838896L633.72,136.14496080707383L668.9266666666666,129.4100223330465L704.1333333333333,120.72457211610039L739.34,117.25544510910426L774.5466666666666,101.820411749987L809.7533333333334,90.81784481083791L844.96,87.69990624887177L880.1666666666667,67.83105174773642L915.3733333333334,52.42630798996881L950.58,38.538839965734944L985.7866666666667,19.75591939504274L1020.9933333333333,3.841534627613246" style="fill: none;" fill="none"></path></g><g><path stroke="rgb(187, 187, 187)" stroke-width="2px" d="M70.41333333333334,361.70165896415716L105.62,301.82932227849983L140.82666666666668,356.8141653708051L176.03333333333333,323.0408022881432L211.24,295.74175459283L246.4466666666667,249.11969431392868L281.65333333333336,223.77328007847402L316.86,212.57028299440466L352.06666666666666,199.5187400131675L387.2733333333333,184.76315954000262L422.48,182.95945162380323L457.6866666666667,186.53619834861402L492.8933333333334,178.21314587875423L528.1,165.67281470644048L563.3066666666667,154.0889349207188L598.5133333333333,135.52721245915887L633.72,111.61860335968925L668.9266666666666,107.14689466927577L704.1333333333333,93.43246344331968L739.34,82.30129769358265L774.5466666666666,80.84823002236521L809.7533333333334,73.58990860974751L844.96,77.94378376991618L880.1666666666667,62.55797973729336L915.3733333333334,46.940143239763934L950.58,38.7306322083348L985.7866666666667,37.8690003532241L1020.9933333333333,40.83550535090887" style="fill: none;" fill="none"></path></g></g></g></g><g opacity="0.2"><g><g><g><path stroke="rgb(0, 119, 187)" stroke-width="2px" d="M70.41333333333334,351.5415048599244L105.62,325.4153943061829L140.82666666666668,264.4544696807862L176.03333333333333,270.26027202606207L211.24,231.0711061954499L246.4466666666667,187.52750217914584L281.65333333333336,171.5615457296372L316.86,145.43543517589575L352.06666666666666,174.46444690227514L387.2733333333333,155.59558928012854L422.48,116.40642344951635L457.6866666666667,81.5716093778611L492.8933333333334,93.18321406841282L528.1,62.70266532897957L563.3066666666667,106.24626934528357L598.5133333333333,126.56657755374916L633.72,98.98901641368873L668.9266666666666,90.28031289577491L704.1333333333333,75.76580703258519L739.34,67.05701708793646L774.5466666666666,58.34831357002264L809.7533333333334,75.76580703258519L844.96,49.63961005210883L880.1666666666667,43.833807706832964L915.3733333333334,52.542511224746775L950.58,33.67365360260017L985.7866666666667,36.57655477523808L1020.9933333333333,7.547543048858726" style="fill: none;" fill="none"></path></g><g><path stroke="rgb(0, 153, 136)" stroke-width="2px" d="M70.41333333333334,341.3813507556916L105.62,289.1291296482087L140.82666666666668,241.23126029968265L176.03333333333333,168.65864455699923L211.24,145.43543517589575L246.4466666666667,107.69771993160255L281.65333333333336,117.85787403583534L316.86,90.28031289577491L352.06666666666666,114.95497286319738L387.2733333333333,62.70266532897957L422.48,75.76580703258519L457.6866666666667,75.76580703258519L492.8933333333334,62.70266532897957L528.1,107.69771993160255L563.3066666666667,43.833807706832964L598.5133333333333,64.1541159152985L633.72,33.67365360260017L668.9266666666666,35.125104188919146L704.1333333333333,43.833807706832964L739.34,4.644641876220774L774.5466666666666,-12.772765159606855" style="fill: none;" fill="none"></path></g><g><path stroke="rgb(204, 51, 17)" stroke-width="2px" d="M70.41333333333334,370.4104489088059L105.62,302.1921849250794L140.82666666666668,290.58058023452764L176.03333333333333,218.00805091857916L211.24,277.5175249576569L246.4466666666667,257.19721674919134L281.65333333333336,242.68271088600162L316.86,200.5905574560166L352.06666666666666,215.10506331920627L387.2733333333333,174.46444690227514L422.48,157.04703986644753L457.6866666666667,151.24123752117163L492.8933333333334,116.40642344951635L528.1,119.3093246221543L563.3066666666667,94.6346646547318L598.5133333333333,87.37741172313696L633.72,43.833807706832964L668.9266666666666,59.79976415634162L704.1333333333333,40.93090653419501L739.34,84.474510550499L774.5466666666666,27.86785125732427L809.7533333333334,29.31930184364324L844.96,43.833807706832964L880.1666666666667,56.89686298370366L915.3733333333334,36.57655477523808L950.58,22.062048912048404L985.7866666666667,8.99899363517766L1020.9933333333333,24.964950084686357" style="fill: none;" fill="none"></path></g><g><path stroke="rgb(238, 51, 119)" stroke-width="2px" d="M70.41333333333334,352.99295544624334L105.62,322.512493133545L140.82666666666668,241.23126029968265L176.03333333333333,264.4544696807862L211.24,225.26530385017398L246.4466666666667,215.10506331920627L281.65333333333336,202.04200804233557L316.86,181.72169983387L352.06666666666666,122.21222579479222L387.2733333333333,101.89191758632668L422.48,114.95497286319738L457.6866666666667,90.28031289577491L492.8933333333334,98.98901641368873L528.1,83.02305996418008L563.3066666666667,83.02305996418008L598.5133333333333,83.02305996418008L633.72,42.38235712051399L668.9266666666666,30.77075242996222L704.1333333333333,30.77075242996222L739.34,32.2222030162812L774.5466666666666,23.51349949836738L809.7533333333334,10.450444221496637L844.96,17.707697153091477L880.1666666666667,-5.515512228012059L915.3733333333334,13.353345394134589L950.58,-6.966962814330952L985.7866666666667,26.416400671005334L1020.9933333333333,24.964950084686357" style="fill: none;" fill="none"></path></g><g><path stroke="rgb(51, 187, 238)" stroke-width="2px" d="M70.41333333333334,367.50754773616796L105.62,432.8228241205216L140.82666666666668,354.4444060325623L176.03333333333333,313.80378961563116L211.24,247.03706264495855L246.4466666666667,187.52750217914584L281.65333333333336,162.85284221172338L316.86,188.97895276546484L352.06666666666666,174.46444690227514L387.2733333333333,164.30429279804235L422.48,130.92092931270602L457.6866666666667,77.21725761890417L492.8933333333334,81.5716093778611L528.1,74.31435644626622L563.3066666666667,52.542511224746775L598.5133333333333,53.99396181106575L633.72,42.38235712051399L668.9266666666666,16.256246566772543L704.1333333333333,13.353345394134589L739.34,33.67365360260017L774.5466666666666,-12.772765159606855" style="fill: none;" fill="none"></path></g><g><path stroke="rgb(51, 187, 238)" stroke-width="2px" d="M316.86,386.37640535831457L352.06666666666666,376.2162512540818L387.2733333333333,400.8909112215042" style="fill: none;" fill="none"></path></g><g><path stroke="rgb(187, 187, 187)" stroke-width="2px" d="M70.41333333333334,337.0269989967347L105.62,292.0320308208466L140.82666666666668,277.5175249576569L176.03333333333333,228.16820502281195L211.24,233.97400736808785L246.4466666666667,183.17315042018896L281.65333333333336,175.91589748859414L316.86,136.72673165798193L352.06666666666666,125.11512696743017L387.2733333333333,114.95497286319738L422.48,88.82886230945594L457.6866666666667,112.05207169055943L492.8933333333334,116.40642344951635L528.1,85.92596113681799L563.3066666666667,64.1541159152985L598.5133333333333,24.964950084686357L633.72,30.77075242996222L668.9266666666666,48.18815946578985L704.1333333333333,74.31435644626622L739.34,14.804795980453566L774.5466666666666,29.31930184364324L809.7533333333334,13.353345394134589L844.96,6.09609246253975L880.1666666666667,-5.515512228012059L915.3733333333334,-35.99597454071039L950.58,4.644641876220774L985.7866666666667,-28.73872160911551" style="fill: none;" fill="none"></path></g><g><path stroke="rgb(0, 119, 187)" stroke-width="2px" d="M70.41333333333334,363.15319597721106L105.62,350.0900542736054L140.82666666666668,339.9299001693726L176.03333333333333,332.67264723777777L211.24,294.93493199348455L246.4466666666667,254.29431557655343L281.65333333333336,244.13416147232059L316.86,264.4544696807862L352.06666666666666,215.10506331920627L387.2733333333333,190.4304033517838L422.48,171.5615457296372L457.6866666666667,157.04703986644753L492.8933333333334,171.5615457296372L528.1,146.88688576221472L563.3066666666667,159.94994103908545L598.5133333333333,125.11512696743017L633.72,117.85787403583534L668.9266666666666,119.3093246221543L704.1333333333333,107.69771993160255L739.34,112.05207169055943L774.5466666666666,78.66870820522314L809.7533333333334,74.31435644626622L844.96,83.02305996418008L880.1666666666667,38.02800536155706L915.3733333333334,29.31930184364324L950.58,17.707697153091477L985.7866666666667,-8.418413400649928" style="fill: none;" fill="none"></path></g><g><path stroke="rgb(187, 187, 187)" stroke-width="2px" d="M70.41333333333334,361.70165896415716L105.62,265.90592026710516L140.82666666666668,409.5996147394181L176.03333333333333,283.3233273029328L211.24,260.1001179218292L246.4466666666667,184.62460100650793L281.65333333333336,187.52750217914584L316.86,196.23620569705966L352.06666666666666,180.27024924755102L387.2733333333333,162.85284221172338L422.48,180.27024924755102L457.6866666666667,191.88185393810278L492.8933333333334,165.75574338436132L528.1,146.88688576221472L563.3066666666667,136.72673165798193L598.5133333333333,107.69771993160255L633.72,75.76580703258519L668.9266666666666,100.4404670000077L704.1333333333333,72.86290585994728L739.34,65.60556650161747L774.5466666666666,78.66870820522314L809.7533333333334,62.70266532897957L844.96,84.474510550499L880.1666666666667,39.47945594787603L915.3733333333334,23.51349949836738L950.58,26.416400671005334L985.7866666666667,36.57655477523808L1020.9933333333333,45.28525829315194" style="fill: none;" fill="none"></path></g></g></g></g></g></g><g transform="translate(50, 377)" clip-path="url(#clip_1)"><clipPath id="clip_1"><rect width="1056" height="23"></rect></clipPath><g><g><line x1="0" y1="0" x2="0" y2="5" style="visibility: inherit;" fill="rgb(0, 0, 0)" stroke="rgb(204, 204, 204)" stroke-width="1px"></line><line x1="70.41333333333334" y1="0" x2="70.41333333333334" y2="5" style="visibility: inherit;" fill="rgb(0, 0, 0)" stroke="rgb(204, 204, 204)" stroke-width="1px"></line><line x1="140.82666666666668" y1="0" x2="140.82666666666668" y2="5" style="visibility: inherit;" fill="rgb(0, 0, 0)" stroke="rgb(204, 204, 204)" stroke-width="1px"></line><line x1="211.24" y1="0" x2="211.24" y2="5" style="visibility: inherit;" fill="rgb(0, 0, 0)" stroke="rgb(204, 204, 204)" stroke-width="1px"></line><line x1="281.65333333333336" y1="0" x2="281.65333333333336" y2="5" style="visibility: inherit;" fill="rgb(0, 0, 0)" stroke="rgb(204, 204, 204)" stroke-width="1px"></line><line x1="352.06666666666666" y1="0" x2="352.06666666666666" y2="5" style="visibility: inherit;" fill="rgb(0, 0, 0)" stroke="rgb(204, 204, 204)" stroke-width="1px"></line><line x1="422.48" y1="0" x2="422.48" y2="5" style="visibility: inherit;" fill="rgb(0, 0, 0)" stroke="rgb(204, 204, 204)" stroke-width="1px"></line><line x1="492.8933333333334" y1="0" x2="492.8933333333334" y2="5" style="visibility: inherit;" fill="rgb(0, 0, 0)" stroke="rgb(204, 204, 204)" stroke-width="1px"></line><line x1="563.3066666666667" y1="0" x2="563.3066666666667" y2="5" style="visibility: inherit;" fill="rgb(0, 0, 0)" stroke="rgb(204, 204, 204)" stroke-width="1px"></line><line x1="633.72" y1="0" x2="633.72" y2="5" style="visibility: inherit;" fill="rgb(0, 0, 0)" stroke="rgb(204, 204, 204)" stroke-width="1px"></line><line x1="704.1333333333333" y1="0" x2="704.1333333333333" y2="5" style="visibility: inherit;" fill="rgb(0, 0, 0)" stroke="rgb(204, 204, 204)" stroke-width="1px"></line><line x1="774.5466666666666" y1="0" x2="774.5466666666666" y2="5" style="visibility: inherit;" fill="rgb(0, 0, 0)" stroke="rgb(204, 204, 204)" stroke-width="1px"></line><line x1="844.96" y1="0" x2="844.96" y2="5" style="visibility: inherit;" fill="rgb(0, 0, 0)" stroke="rgb(204, 204, 204)" stroke-width="1px"></line><line x1="915.3733333333334" y1="0" x2="915.3733333333334" y2="5" style="visibility: inherit;" fill="rgb(0, 0, 0)" stroke="rgb(204, 204, 204)" stroke-width="1px"></line><line x1="985.7866666666667" y1="0" x2="985.7866666666667" y2="5" style="visibility: inherit;" fill="rgb(0, 0, 0)" stroke="rgb(204, 204, 204)" stroke-width="1px"></line><line x1="1056.2" y1="0" x2="1056.2" y2="5" style="visibility: inherit;" fill="rgb(0, 0, 0)" stroke="rgb(204, 204, 204)" stroke-width="1px"></line></g><g transform="translate(0, 8)"><text x="0" y="0" dx="0em" dy="0.95em" style="text-anchor: middle; visibility: hidden; font-family: Roboto, sans-serif; font-size: 12px; font-weight: 200;" fill="rgb(255, 255, 255)" stroke="none" stroke-width="1px">-2</text><text x="70.41333333333334" y="0" dx="0em" dy="0.95em" style="text-anchor: middle; visibility: inherit; font-family: Roboto, sans-serif; font-size: 12px; font-weight: 200;" fill="rgb(255, 255, 255)" stroke="none" stroke-width="1px">0</text><text x="140.82666666666668" y="0" dx="0em" dy="0.95em" style="text-anchor: middle; visibility: inherit; font-family: Roboto, sans-serif; font-size: 12px; font-weight: 200;" fill="rgb(255, 255, 255)" stroke="none" stroke-width="1px">2</text><text x="211.24" y="0" dx="0em" dy="0.95em" style="text-anchor: middle; visibility: inherit; font-family: Roboto, sans-serif; font-size: 12px; font-weight: 200;" fill="rgb(255, 255, 255)" stroke="none" stroke-width="1px">4</text><text x="281.65333333333336" y="0" dx="0em" dy="0.95em" style="text-anchor: middle; visibility: inherit; font-family: Roboto, sans-serif; font-size: 12px; font-weight: 200;" fill="rgb(255, 255, 255)" stroke="none" stroke-width="1px">6</text><text x="352.06666666666666" y="0" dx="0em" dy="0.95em" style="text-anchor: middle; visibility: inherit; font-family: Roboto, sans-serif; font-size: 12px; font-weight: 200;" fill="rgb(255, 255, 255)" stroke="none" stroke-width="1px">8</text><text x="422.48" y="0" dx="0em" dy="0.95em" style="text-anchor: middle; visibility: inherit; font-family: Roboto, sans-serif; font-size: 12px; font-weight: 200;" fill="rgb(255, 255, 255)" stroke="none" stroke-width="1px">10</text><text x="492.8933333333334" y="0" dx="0em" dy="0.95em" style="text-anchor: middle; visibility: inherit; font-family: Roboto, sans-serif; font-size: 12px; font-weight: 200;" fill="rgb(255, 255, 255)" stroke="none" stroke-width="1px">12</text><text x="563.3066666666667" y="0" dx="0em" dy="0.95em" style="text-anchor: middle; visibility: inherit; font-family: Roboto, sans-serif; font-size: 12px; font-weight: 200;" fill="rgb(255, 255, 255)" stroke="none" stroke-width="1px">14</text><text x="633.72" y="0" dx="0em" dy="0.95em" style="text-anchor: middle; visibility: inherit; font-family: Roboto, sans-serif; font-size: 12px; font-weight: 200;" fill="rgb(255, 255, 255)" stroke="none" stroke-width="1px">16</text><text x="704.1333333333333" y="0" dx="0em" dy="0.95em" style="text-anchor: middle; visibility: inherit; font-family: Roboto, sans-serif; font-size: 12px; font-weight: 200;" fill="rgb(255, 255, 255)" stroke="none" stroke-width="1px">18</text><text x="774.5466666666666" y="0" dx="0em" dy="0.95em" style="text-anchor: middle; visibility: inherit; font-family: Roboto, sans-serif; font-size: 12px; font-weight: 200;" fill="rgb(255, 255, 255)" stroke="none" stroke-width="1px">20</text><text x="844.96" y="0" dx="0em" dy="0.95em" style="text-anchor: middle; visibility: inherit; font-family: Roboto, sans-serif; font-size: 12px; font-weight: 200;" fill="rgb(255, 255, 255)" stroke="none" stroke-width="1px">22</text><text x="915.3733333333334" y="0" dx="0em" dy="0.95em" style="text-anchor: middle; visibility: inherit; font-family: Roboto, sans-serif; font-size: 12px; font-weight: 200;" fill="rgb(255, 255, 255)" stroke="none" stroke-width="1px">24</text><text x="985.7866666666667" y="0" dx="0em" dy="0.95em" style="text-anchor: middle; visibility: inherit; font-family: Roboto, sans-serif; font-size: 12px; font-weight: 200;" fill="rgb(255, 255, 255)" stroke="none" stroke-width="1px">26</text><text x="1056.2" y="0" dx="0em" dy="0.95em" style="text-anchor: middle; visibility: hidden; font-family: Roboto, sans-serif; font-size: 12px; font-weight: 200;" fill="rgb(255, 255, 255)" stroke="none" stroke-width="1px">28</text></g><line x1="0" y1="0" x2="1056.2" y2="0" fill="rgb(0, 0, 0)" stroke="rgb(204, 204, 204)" stroke-width="1px"></line></g></g></g></g></svg>