<svg viewBox="0 0 1106.2000732421875 400" xmlns="http://www.w3.org/2000/svg"><g><g><g><g><g><line x1="51.5625" y1="377" x2="46.5625" y2="377" style="visibility: inherit;" fill="rgb(0, 0, 0)" stroke="rgb(204, 204, 204)" stroke-width="1px"></line><line x1="51.5625" y1="351.86666666666673" x2="46.5625" y2="351.86666666666673" style="visibility: inherit;" fill="rgb(0, 0, 0)" stroke="rgb(204, 204, 204)" stroke-width="1px"></line><line x1="51.5625" y1="326.73333333333335" x2="46.5625" y2="326.73333333333335" style="visibility: inherit;" fill="rgb(0, 0, 0)" stroke="rgb(204, 204, 204)" stroke-width="1px"></line><line x1="51.5625" y1="301.59999999999997" x2="46.5625" y2="301.59999999999997" style="visibility: inherit;" fill="rgb(0, 0, 0)" stroke="rgb(204, 204, 204)" stroke-width="1px"></line><line x1="51.5625" y1="276.4666666666667" x2="46.5625" y2="276.4666666666667" style="visibility: inherit;" fill="rgb(0, 0, 0)" stroke="rgb(204, 204, 204)" stroke-width="1px"></line><line x1="51.5625" y1="251.33333333333337" x2="46.5625" y2="251.33333333333337" style="visibility: inherit;" fill="rgb(0, 0, 0)" stroke="rgb(204, 204, 204)" stroke-width="1px"></line><line x1="51.5625" y1="226.19999999999996" x2="46.5625" y2="226.19999999999996" style="visibility: inherit;" fill="rgb(0, 0, 0)" stroke="rgb(204, 204, 204)" stroke-width="1px"></line><line x1="51.5625" y1="201.06666666666663" x2="46.5625" y2="201.06666666666663" style="visibility: inherit;" fill="rgb(0, 0, 0)" stroke="rgb(204, 204, 204)" stroke-width="1px"></line><line x1="51.5625" y1="175.93333333333325" x2="46.5625" y2="175.93333333333325" style="visibility: inherit;" fill="rgb(0, 0, 0)" stroke="rgb(204, 204, 204)" stroke-width="1px"></line><line x1="51.5625" y1="150.8" x2="46.5625" y2="150.8" style="visibility: inherit;" fill="rgb(0, 0, 0)" stroke="rgb(204, 204, 204)" stroke-width="1px"></line><line x1="51.5625" y1="125.66666666666669" x2="46.5625" y2="125.66666666666669" style="visibility: inherit;" fill="rgb(0, 0, 0)" stroke="rgb(204, 204, 204)" stroke-width="1px"></line><line x1="51.5625" y1="100.53333333333332" x2="46.5625" y2="100.53333333333332" style="visibility: inherit;" fill="rgb(0, 0, 0)" stroke="rgb(204, 204, 204)" stroke-width="1px"></line><line x1="51.5625" y1="75.39999999999993" x2="46.5625" y2="75.39999999999993" style="visibility: inherit;" fill="rgb(0, 0, 0)" stroke="rgb(204, 204, 204)" stroke-width="1px"></line><line x1="51.5625" y1="50.26666666666657" x2="46.5625" y2="50.26666666666657" style="visibility: inherit;" fill="rgb(0, 0, 0)" stroke="rgb(204, 204, 204)" stroke-width="1px"></line><line x1="51.5625" y1="25.1333333333332" x2="46.5625" y2="25.1333333333332" style="visibility: inherit;" fill="rgb(0, 0, 0)" stroke="rgb(204, 204, 204)" stroke-width="1px"></line><line x1="51.5625" y1="0" x2="46.5625" y2="0" style="visibility: inherit;" fill="rgb(0, 0, 0)" stroke="rgb(204, 204, 204)" stroke-width="1px"></line></g><g transform="translate(41.5625, 0)"><text x="0" y="377" dx="0em" dy="0.3em" style="text-anchor: end; visibility: hidden; font-family: Roboto, sans-serif; font-size: 12px; font-weight: 200;" fill="rgb(255, 255, 255)" stroke="none" stroke-width="1px">0.4</text><text x="0" y="351.86666666666673" dx="0em" dy="0.3em" style="text-anchor: end; visibility: inherit; font-family: Roboto, sans-serif; font-size: 12px; font-weight: 200;" fill="rgb(255, 255, 255)" stroke="none" stroke-width="1px">0.42</text><text x="0" y="326.73333333333335" dx="0em" dy="0.3em" style="text-anchor: end; visibility: inherit; font-family: Roboto, sans-serif; font-size: 12px; font-weight: 200;" fill="rgb(255, 255, 255)" stroke="none" stroke-width="1px">0.44</text><text x="0" y="301.59999999999997" dx="0em" dy="0.3em" style="text-anchor: end; visibility: inherit; font-family: Roboto, sans-serif; font-size: 12px; font-weight: 200;" fill="rgb(255, 255, 255)" stroke="none" stroke-width="1px">0.46</text><text x="0" y="276.4666666666667" dx="0em" dy="0.3em" style="text-anchor: end; visibility: inherit; font-family: Roboto, sans-serif; font-size: 12px; font-weight: 200;" fill="rgb(255, 255, 255)" stroke="none" stroke-width="1px">0.48</text><text x="0" y="251.33333333333337" dx="0em" dy="0.3em" style="text-anchor: end; visibility: inherit; font-family: Roboto, sans-serif; font-size: 12px; font-weight: 200;" fill="rgb(255, 255, 255)" stroke="none" stroke-width="1px">0.5</text><text x="0" y="226.19999999999996" dx="0em" dy="0.3em" style="text-anchor: end; visibility: inherit; font-family: Roboto, sans-serif; font-size: 12px; font-weight: 200;" fill="rgb(255, 255, 255)" stroke="none" stroke-width="1px">0.52</text><text x="0" y="201.06666666666663" dx="0em" dy="0.3em" style="text-anchor: end; visibility: inherit; font-family: Roboto, sans-serif; font-size: 12px; font-weight: 200;" fill="rgb(255, 255, 255)" stroke="none" stroke-width="1px">0.54</text><text x="0" y="175.93333333333325" dx="0em" dy="0.3em" style="text-anchor: end; visibility: inherit; font-family: Roboto, sans-serif; font-size: 12px; font-weight: 200;" fill="rgb(255, 255, 255)" stroke="none" stroke-width="1px">0.56</text><text x="0" y="150.8" dx="0em" dy="0.3em" style="text-anchor: end; visibility: inherit; font-family: Roboto, sans-serif; font-size: 12px; font-weight: 200;" fill="rgb(255, 255, 255)" stroke="none" stroke-width="1px">0.58</text><text x="0" y="125.66666666666669" dx="0em" dy="0.3em" style="text-anchor: end; visibility: inherit; font-family: Roboto, sans-serif; font-size: 12px; font-weight: 200;" fill="rgb(255, 255, 255)" stroke="none" stroke-width="1px">0.6</text><text x="0" y="100.53333333333332" dx="0em" dy="0.3em" style="text-anchor: end; visibility: inherit; font-family: Roboto, sans-serif; font-size: 12px; font-weight: 200;" fill="rgb(255, 255, 255)" stroke="none" stroke-width="1px">0.62</text><text x="0" y="75.39999999999993" dx="0em" dy="0.3em" style="text-anchor: end; visibility: inherit; font-family: Roboto, sans-serif; font-size: 12px; font-weight: 200;" fill="rgb(255, 255, 255)" stroke="none" stroke-width="1px">0.64</text><text x="0" y="50.26666666666657" dx="0em" dy="0.3em" style="text-anchor: end; visibility: inherit; font-family: Roboto, sans-serif; font-size: 12px; font-weight: 200;" fill="rgb(255, 255, 255)" stroke="none" stroke-width="1px">0.66</text><text x="0" y="25.1333333333332" dx="0em" dy="0.3em" style="text-anchor: end; visibility: inherit; font-family: Roboto, sans-serif; font-size: 12px; font-weight: 200;" fill="rgb(255, 255, 255)" stroke="none" stroke-width="1px">0.68</text><text x="0" y="0" dx="0em" dy="0.3em" style="text-anchor: end; visibility: hidden; font-family: Roboto, sans-serif; font-size: 12px; font-weight: 200;" fill="rgb(255, 255, 255)" stroke="none" stroke-width="1px">0.7</text></g><line x1="51.5625" y1="0" x2="51.5625" y2="377" fill="rgb(0, 0, 0)" stroke="rgb(204, 204, 204)" stroke-width="1px"></line></g></g><g transform="translate(51, 0)" clip-path="url(#clip_0)"><clipPath id="clip_0"><rect width="1054" height="377"></rect></clipPath><g><g><g><line x1="0" y1="0" x2="0" y2="377" fill="rgb(0, 0, 0)" stroke="rgb(189, 189, 189)" stroke-width="1px" opacity="0.25"></line><line x1="70.30916666666667" y1="0" x2="70.30916666666667" y2="377" fill="rgb(0, 0, 0)" stroke="rgb(189, 189, 189)" stroke-width="1px" opacity="0.25"></line><line x1="140.61833333333334" y1="0" x2="140.61833333333334" y2="377" fill="rgb(0, 0, 0)" stroke="rgb(189, 189, 189)" stroke-width="1px" opacity="0.25"></line><line x1="210.9275" y1="0" x2="210.9275" y2="377" fill="rgb(0, 0, 0)" stroke="rgb(189, 189, 189)" stroke-width="1px" opacity="0.25"></line><line x1="281.2366666666667" y1="0" x2="281.2366666666667" y2="377" fill="rgb(0, 0, 0)" stroke="rgb(189, 189, 189)" stroke-width="1px" opacity="0.25"></line><line x1="351.54583333333335" y1="0" x2="351.54583333333335" y2="377" fill="rgb(0, 0, 0)" stroke="rgb(189, 189, 189)" stroke-width="1px" opacity="0.25"></line><line x1="421.855" y1="0" x2="421.855" y2="377" fill="rgb(0, 0, 0)" stroke="rgb(189, 189, 189)" stroke-width="1px" opacity="0.25"></line><line x1="492.1641666666667" y1="0" x2="492.1641666666667" y2="377" fill="rgb(0, 0, 0)" stroke="rgb(189, 189, 189)" stroke-width="1px" opacity="0.25"></line><line x1="562.4733333333334" y1="0" x2="562.4733333333334" y2="377" fill="rgb(0, 0, 0)" stroke="rgb(189, 189, 189)" stroke-width="1px" opacity="0.25"></line><line x1="632.7825" y1="0" x2="632.7825" y2="377" fill="rgb(0, 0, 0)" stroke="rgb(189, 189, 189)" stroke-width="1px" opacity="0.25"></line><line x1="703.0916666666667" y1="0" x2="703.0916666666667" y2="377" fill="rgb(0, 0, 0)" stroke="rgb(189, 189, 189)" stroke-width="1px" opacity="0.25"></line><line x1="773.4008333333334" y1="0" x2="773.4008333333334" y2="377" fill="rgb(0, 0, 0)" stroke="rgb(189, 189, 189)" stroke-width="1px" opacity="0.25"></line><line x1="843.71" y1="0" x2="843.71" y2="377" fill="rgb(0, 0, 0)" stroke="rgb(189, 189, 189)" stroke-width="1px" opacity="0.25"></line><line x1="914.0191666666667" y1="0" x2="914.0191666666667" y2="377" fill="rgb(0, 0, 0)" stroke="rgb(189, 189, 189)" stroke-width="1px" opacity="0.25"></line><line x1="984.3283333333334" y1="0" x2="984.3283333333334" y2="377" fill="rgb(0, 0, 0)" stroke="rgb(189, 189, 189)" stroke-width="1px" opacity="0.25"></line><line x1="1054.6375" y1="0" x2="1054.6375" y2="377" fill="rgb(0, 0, 0)" stroke="rgb(189, 189, 189)" stroke-width="1px" opacity="0.25"></line></g><g><line x1="0" y1="377" x2="1054.6375" y2="377" fill="rgb(0, 0, 0)" stroke="rgb(189, 189, 189)" stroke-width="1px" opacity="0.25"></line><line x1="0" y1="351.86666666666673" x2="1054.6375" y2="351.86666666666673" fill="rgb(0, 0, 0)" stroke="rgb(189, 189, 189)" stroke-width="1px" opacity="0.25"></line><line x1="0" y1="326.73333333333335" x2="1054.6375" y2="326.73333333333335" fill="rgb(0, 0, 0)" stroke="rgb(189, 189, 189)" stroke-width="1px" opacity="0.25"></line><line x1="0" y1="301.59999999999997" x2="1054.6375" y2="301.59999999999997" fill="rgb(0, 0, 0)" stroke="rgb(189, 189, 189)" stroke-width="1px" opacity="0.25"></line><line x1="0" y1="276.4666666666667" x2="1054.6375" y2="276.4666666666667" fill="rgb(0, 0, 0)" stroke="rgb(189, 189, 189)" stroke-width="1px" opacity="0.25"></line><line x1="0" y1="251.33333333333337" x2="1054.6375" y2="251.33333333333337" fill="rgb(0, 0, 0)" stroke="rgb(189, 189, 189)" stroke-width="1px" opacity="0.25"></line><line x1="0" y1="226.19999999999996" x2="1054.6375" y2="226.19999999999996" fill="rgb(0, 0, 0)" stroke="rgb(189, 189, 189)" stroke-width="1px" opacity="0.25"></line><line x1="0" y1="201.06666666666663" x2="1054.6375" y2="201.06666666666663" fill="rgb(0, 0, 0)" stroke="rgb(189, 189, 189)" stroke-width="1px" opacity="0.25"></line><line x1="0" y1="175.93333333333325" x2="1054.6375" y2="175.93333333333325" fill="rgb(0, 0, 0)" stroke="rgb(189, 189, 189)" stroke-width="1px" opacity="0.25"></line><line x1="0" y1="150.8" x2="1054.6375" y2="150.8" fill="rgb(0, 0, 0)" stroke="rgb(189, 189, 189)" stroke-width="1px" opacity="0.25"></line><line x1="0" y1="125.66666666666669" x2="1054.6375" y2="125.66666666666669" fill="rgb(0, 0, 0)" stroke="rgb(189, 189, 189)" stroke-width="1px" opacity="0.25"></line><line x1="0" y1="100.53333333333332" x2="1054.6375" y2="100.53333333333332" fill="rgb(0, 0, 0)" stroke="rgb(189, 189, 189)" stroke-width="1px" opacity="0.25"></line><line x1="0" y1="75.39999999999993" x2="1054.6375" y2="75.39999999999993" fill="rgb(0, 0, 0)" stroke="rgb(189, 189, 189)" stroke-width="1px" opacity="0.25"></line><line x1="0" y1="50.26666666666657" x2="1054.6375" y2="50.26666666666657" fill="rgb(0, 0, 0)" stroke="rgb(189, 189, 189)" stroke-width="1px" opacity="0.25"></line><line x1="0" y1="25.1333333333332" x2="1054.6375" y2="25.1333333333332" fill="rgb(0, 0, 0)" stroke="rgb(189, 189, 189)" stroke-width="1px" opacity="0.25"></line><line x1="0" y1="0" x2="1054.6375" y2="0" fill="rgb(0, 0, 0)" stroke="rgb(189, 189, 189)" stroke-width="1px" opacity="0.25"></line></g></g></g><g><g><line x1="0" y1="879.6666666666669" x2="1054.6375" y2="879.6666666666669" fill="rgb(0, 0, 0)" stroke="rgb(153, 153, 153)" stroke-width="1.5px"></line></g></g><g><g><line x1="70.30916666666667" y1="0" x2="70.30916666666667" y2="377" fill="rgb(0, 0, 0)" stroke="rgb(153, 153, 153)" stroke-width="1.5px"></line></g></g><g><g><g><g><g><path stroke="rgb(0, 119, 187)" stroke-width="2px" d="M70.30916666666667,11.028982480366968L105.46375,20.252558867136567L140.61833333333334,40.88727401470656L175.77291666666667,46.58200769725371L210.9275,72.4276252309674L246.08208333333334,105.59727356025073L281.2366666666667,125.84822743262514L316.39125,145.39031083966378L351.54583333333335,147.4021019366239L386.7004166666667,155.17711890583305L421.855,171.58375672540404L457.00958333333335,191.99187453331504L492.1641666666667,203.9851333038316L527.31875,224.56229693864424L562.4733333333334,219.59326884712075L597.6279166666667,210.94760154245566L632.7825,222.71506966192882L667.9370833333334,226.35058338432628L703.0916666666667,239.42443847089618L738.24625,247.80438817049088L773.4008333333334,251.249587982405L808.5554166666667,257.9483130537395L843.71,270.2137067276123L878.8645833333334,290.3063304141035L914.0191666666667,298.8011465848405L949.17375,310.58140242408535L984.3283333333334,315.30439730869534L1019.4829166666667,329.3323719520953" style="fill: none;" fill="none"></path></g><g><path stroke="rgb(0, 153, 136)" stroke-width="2px" d="M70.30916666666667,27.19495920340213L105.46375,38.63838467001911L140.61833333333334,63.96837256230457L175.77291666666667,100.08963400592988L210.9275,123.00769615793793L246.08208333333334,155.98532951629858L281.2366666666667,165.43688148861943L316.39125,191.72080020649236L351.54583333333335,198.27566834643955L386.7004166666667,217.91792063494512L421.855,232.31167995194272L457.00958333333335,241.56909733763854L492.1641666666667,252.41225367847736L527.31875,248.6212137801911L562.4733333333334,261.090764805158L597.6279166666667,268.81882439674933L632.7825,286.58530520851133L667.9370833333334,295.7357343813204L703.0916666666667,293.1655795028948L738.24625,303.0265133319528L773.4008333333334,319.68085237843695L808.5554166666667,344.3010149471307L843.71,356.27444062759463L878.8645833333334,371.77672666286605L914.0191666666667,389.0739574696246" style="fill: none;" fill="none"></path></g><g><path stroke="rgb(204, 51, 17)" stroke-width="2px" d="M70.30916666666667,17.261150956153827L105.46375,34.320347984631965L140.61833333333334,49.24002767257941L175.77291666666667,69.0559014808021L210.9275,70.35223605046524L246.08208333333334,83.78848137912715L281.2366666666667,90.71445864679039L316.39125,110.11547693250486L351.54583333333335,111.43647435935812L386.7004166666667,119.38411189564225L421.855,145.38012928903603L457.00958333333335,156.042995064069L492.1641666666667,184.8876577346047L527.31875,189.72161053483035L562.4733333333334,205.9935440933611L597.6279166666667,220.57884977108665L632.7825,237.74716186953165L667.9370833333334,251.603831906969L703.0916666666667,264.0382219507158L738.24625,248.94649396720243L773.4008333333334,270.2597497536367L808.5554166666667,287.55392266186186L843.71,294.0620107715143L878.8645833333334,295.7107215840891L914.0191666666667,299.6676750376901L949.17375,309.88676192683477L984.3283333333334,322.4396732438978L1019.4829166666667,324.7238123251429" style="fill: none;" fill="none"></path></g><g><path stroke="rgb(238, 51, 119)" stroke-width="2px" d="M70.30916666666667,25.698768377304035L105.46375,42.7679368903239L140.61833333333334,58.80301936791866L175.77291666666667,68.46922487809363L210.9275,85.74065091588997L246.08208333333334,99.04288582608358L281.2366666666667,106.92222342023491L316.39125,124.82424270690555L351.54583333333335,149.8475104028407L386.7004166666667,172.7599292817464L421.855,179.59229790065928L457.00958333333335,204.3218606141206L492.1641666666667,217.91413323112607L527.31875,227.6422514638676L562.4733333333334,231.11922683775558L597.6279166666667,237.82141108108775L632.7825,255.7120463035124L667.9370833333334,278.12089206364396L703.0916666666667,289.35459017590495L738.24625,298.85504317939126L773.4008333333334,311.98109595324837L808.5554166666667,316.49794583317134L843.71,321.6652955408693L878.8645833333334,332.4440995381317L914.0191666666667,334.47341367724454L949.17375,344.2493893795979L984.3283333333334,340.6152250105367L1019.4829166666667,331.52597069479236" style="fill: none;" fill="none"></path></g><g><path stroke="rgb(51, 187, 238)" stroke-width="2px" d="M70.30916666666667,0.4558756748834548L105.46375,6.126092478632717L140.61833333333334,15.873149352008701L175.77291666666667,23.033135558021925L210.9275,55.044420426928106L246.08208333333334,81.095592731884L281.2366666666667,103.56488029159797L316.39125,113.25858768968466L351.54583333333335,133.43419826292356L386.7004166666667,145.30329418918478L421.855,161.29668060073143L457.00958333333335,191.2856451422288L492.1641666666667,204.66857173607735L527.31875,219.6461166366893L562.4733333333334,242.49682665184997L597.6279166666667,251.1952060252374L632.7825,274.54153468684876L667.9370833333334,289.54632203607173L703.0916666666667,313.89990016753154L738.24625,309.15224934479767L773.4008333333334,336.1564541462793L808.5554166666667,354.10973721721854L843.71,358.75447305049505L878.8645833333334,375.2817435423432L914.0191666666667,397.2719567687195" style="fill: none;" fill="none"></path></g><g><path stroke="rgb(51, 187, 238)" stroke-width="2px" d="M597.6279166666667,-6.1435955181745205L632.7825,1.1357589875232557L667.9370833333334,-17.356890399498187L703.0916666666667,-5.6958961648689135L738.24625,1.480049735729343L773.4008333333334,5.633302702394209L808.5554166666667,7.950789334190081L843.71,9.612023909269357L878.8645833333334,10.58628520038647L914.0191666666667,11.075352187609278L949.17375,11.535975651288785L984.3283333333334,11.531821586218342L1019.4829166666667,-83.11558852338314" style="fill: none;" fill="none"></path></g><g><path stroke="rgb(187, 187, 187)" stroke-width="2px" d="M70.30916666666667,21.683808644612576L105.46375,35.519922256469684L140.61833333333334,53.928752122282134L175.77291666666667,77.0954707877017L210.9275,71.77748666098073L246.08208333333334,95.85903243199299L281.2366666666667,109.55060991573573L316.39125,125.79161805233213L351.54583333333335,151.20238459889174L386.7004166666667,173.7871932211666L421.855,188.002209941878L457.00958333333335,193.82838439456063L492.1641666666667,209.9909122206849L527.31875,229.20755999087524L562.4733333333334,246.11145143430116L597.6279166666667,269.5055803229608L632.7825,287.5523637986293L667.9370833333334,292.7339365464461L703.0916666666667,285.0876653506589L738.24625,299.2715616984523L773.4008333333334,305.02117541969056L808.5554166666667,311.4145063812704L843.71,314.15592737271675L878.8645833333334,324.78869477106616L914.0191666666667,348.67637458541924L949.17375,347.8846448372695L984.3283333333334,368.8502128671019L1019.4829166666667,385.9917899900577" style="fill: none;" fill="none"></path></g><g><path stroke="rgb(0, 119, 187)" stroke-width="2px" d="M70.30916666666667,2.7858885924020704L105.46375,16.121602212389256L140.61833333333334,-16.105195399044337L175.77291666666667,1.4543222671044598L210.9275,24.514472065080934L246.08208333333334,44.08472391312097L281.2366666666667,68.2208946033643L316.39125,69.61154628928662L351.54583333333335,83.34046505440293L386.7004166666667,100.5001093905501L421.855,121.71401276374485L457.00958333333335,135.88771636476676L492.1641666666667,147.19922921737233L527.31875,158.7487797973945L562.4733333333334,170.31413000561903L597.6279166666667,184.94137851492275L632.7825,194.3875608536426L667.9370833333334,218.18731461770443L703.0916666666667,209.80200001031562L738.24625,217.44773490919968L773.4008333333334,234.7821183204172L808.5554166666667,256.55553260472334L843.71,261.8122086277391L878.8645833333334,285.67581393115745L914.0191666666667,303.49217737433133L949.17375,323.9189872898935L984.3283333333334,346.2932212245496L1019.4829166666667,365.23603165879985" style="fill: none;" fill="none"></path></g><g><path stroke="rgb(187, 187, 187)" stroke-width="2px" d="M70.30916666666667,19.52322669823959L105.46375,37.07196275889869L140.61833333333334,21.947498376677636L175.77291666666667,25.117788546225587L210.9275,45.548440806352325L246.08208333333334,83.34122115377872L281.2366666666667,112.59362675414789L316.39125,121.1316141512953L351.54583333333335,139.6221679387341L386.7004166666667,147.38858048354487L421.855,142.66941820861965L457.00958333333335,144.00831100692625L492.1641666666667,152.19105988945546L527.31875,166.65162793852127L562.4733333333334,182.05776549010673L597.6279166666667,191.57546920619566L632.7825,209.45163587567043L667.9370833333334,216.99540664540012L703.0916666666667,229.04344344061707L738.24625,240.8995426183383L773.4008333333334,244.8926598220742L808.5554166666667,253.01395302836892L843.71,247.63507702606967L878.8645833333334,262.9897552558371L914.0191666666667,276.24024242471216L949.17375,290.072996185746L984.3283333333334,300.4661641118723L1019.4829166666667,293.557412482403" style="fill: none;" fill="none"></path></g></g></g></g><g opacity="0.2"><g><g><g><path stroke="rgb(0, 119, 187)" stroke-width="2px" d="M70.30916666666667,11.028982480366968L105.46375,25.786704699198335L140.61833333333334,60.696600556373554L175.77291666666667,53.27901450792945L210.9275,106.17166348298389L246.08208333333334,151.48283827304837L281.2366666666667,154.80741548538205L316.39125,173.88285605112708L351.54583333333335,150.36910303433734L386.7004166666667,166.72211297353107L421.855,196.0449064572652L457.00958333333335,222.4929911692937L492.1641666666667,221.93586138884223L527.31875,255.38772958517075L562.4733333333334,212.1455676158269L597.6279166666667,197.98519817988074L632.7825,240.36129224300385L667.9370833333334,231.80293091138202L703.0916666666667,259.0332294305166L738.24625,260.3735467592875L773.4008333333334,256.41719875733054L808.5554166666667,267.99618023633957L843.71,288.6115550796191L878.8645833333334,320.44502792755765L914.0191666666667,311.5433104634285L949.17375,328.2517359455427L984.3283333333334,322.3888775507609L1019.4829166666667,350.3743123809497" style="fill: none;" fill="none"></path></g><g><path stroke="rgb(0, 153, 136)" stroke-width="2px" d="M70.30916666666667,27.19495920340213L105.46375,45.504439949989276L140.61833333333334,88.2851609388987L175.77291666666667,142.56823746363318L210.9275,152.92951810359952L246.08208333333334,201.60526839892066L281.2366666666667,178.9527520338694L316.39125,230.04300602277118L351.54583333333335,207.94282563527423L386.7004166666667,247.08437609672546L421.855,253.77176858981454L457.00958333333335,255.40484495957696L492.1641666666667,268.6415834029516L527.31875,242.94208097457886L562.4733333333334,279.78043385346734L597.6279166666667,280.4054633577665L632.7825,313.22750824689865L667.9370833333334,309.4590548475584L703.0916666666667,289.31073872248334L738.24625,317.81701274712884L773.4008333333334,344.66144758462906L808.5554166666667,381.2304486632347L843.71,374.23434275388723L878.8645833333334,395.029972076416" style="fill: none;" fill="none"></path></g><g><path stroke="rgb(204, 51, 17)" stroke-width="2px" d="M70.30916666666667,17.261150956153827L105.46375,44.555866201718594L140.61833333333334,63.56292017300918L175.77291666666667,92.35936907927193L210.9275,72.04473046461739L246.08208333333334,102.37564571698505L281.2366666666667,100.6187169551849L316.39125,138.40234784285224L351.54583333333335,113.38468897342678L386.7004166666667,131.18542738755542L421.855,184.13837341467536L457.00958333333335,171.97926688194275L492.1641666666667,228.06046891212463L527.31875,196.96306951840717L562.4733333333334,230.38231738408405L597.6279166666667,242.44652160008752L632.7825,263.49236496289575L667.9370833333334,272.3853187561035L703.0916666666667,282.68791276216507L738.24625,226.31028143564856L773.4008333333334,302.2284645636877L808.5554166666667,313.49461295207345L843.71,303.82401444514596L878.8645833333334,298.1837682723999L914.0191666666667,305.6030770937602L949.17375,325.21534868081415L984.3283333333334,341.2690081000328L1019.4829166666667,328.15001744031906" style="fill: none;" fill="none"></path></g><g><path stroke="rgb(238, 51, 119)" stroke-width="2px" d="M70.30916666666667,25.698768377304035L105.46375,53.00943799813583L140.61833333333334,74.19669854640956L175.77291666666667,79.83668255805965L210.9275,108.29022475083667L246.08208333333334,117.44466551144916L281.2366666666667,118.18980224927265L316.39125,150.92555868625638L351.54583333333335,186.75196973482764L386.7004166666667,206.7822010119756L421.855,189.77888174851734L457.00958333333335,241.28162749608362L492.1641666666667,238.25816102822625L527.31875,242.21537041664124L562.4733333333334,236.3306028445562L597.6279166666667,247.86996054649353L632.7825,282.5404284199079L667.9370833333334,311.72847110033035L703.0916666666667,306.2034260034561L738.24625,313.10485430558526L773.4008333333334,331.6694552501043L808.5554166666667,323.2730720241865L843.71,329.4162180821101L878.8645833333334,348.6121778488159L914.0191666666667,337.5173704624176L949.17375,358.9133112430573L984.3283333333334,335.16398775577545L1019.4829166666667,317.89210317532223" style="fill: none;" fill="none"></path></g><g><path stroke="rgb(51, 187, 238)" stroke-width="2px" d="M70.30916666666667,0.4558756748834548L105.46375,9.528222560882526L140.61833333333334,25.230323950449556L175.77291666666667,31.453279336293484L210.9275,96.83835395177204L246.08208333333334,117.13374245166774L281.2366666666667,135.69632101058957L316.39125,127.39210613568622L351.54583333333335,163.1893049478531L386.7004166666667,162.92751836776733L421.855,185.14170138041175L457.00958333333335,236.105893333753L492.1641666666667,224.69926404953003L527.31875,242.08309141794837L562.4733333333334,276.74603152275085L597.6279166666667,264.2366403142611L632.7825,309.5511482954025L667.9370833333334,312.04969334602356L703.0916666666667,350.4265573422114L738.24625,302.03120706478757L773.4008333333334,376.66128037373227L808.5554166666667,381.0390710632007L843.71,365.72148509820306L878.8645833333334,400.07245349884033" style="fill: none;" fill="none"></path></g><g><path stroke="rgb(51, 187, 238)" stroke-width="2px" d="M246.08208333333334,-2.7455607255300167L281.2366666666667,5.601798375447535L316.39125,4.7923198143640455L351.54583333333335,-13.420910358429039L421.855,-136.72351312637338L457.00958333333335,7.252289732297205L492.1641666666667,11.533979654312091L527.31875,11.519448439280122L562.4733333333334,11.819210926691621L597.6279166666667,12.589964548746675L632.7825,12.051710367202716L667.9370833333334,-45.091169198354116L703.0916666666667,11.793818751970857L738.24625,12.243312676747584L773.4008333333334,11.86295437812801L808.5554166666667,11.426943023999476L843.71,12.103842973709064L878.8645833333334,12.047665596008258L914.0191666666667,11.808949192364954L949.17375,12.226908882458948L984.3283333333334,11.52559049924209L1019.4829166666667,-225.08655838171654" style="fill: none;" fill="none"></path></g><g><path stroke="rgb(187, 187, 187)" stroke-width="2px" d="M70.30916666666667,21.683808644612576L105.46375,43.82159042358394L140.61833333333334,71.60122879346206L175.77291666666667,104.33953193823494L210.9275,64.83432658513381L246.08208333333334,129.17247958978015L281.2366666666667,129.12978478272754L316.39125,149.47116382916766L351.54583333333335,188.67832946777344L386.7004166666667,207.32300190130866L421.855,209.195805867513L457.00958333333335,202.53594028949738L492.1641666666667,234.18193050225574L527.31875,257.99488423267996L562.4733333333334,271.44741870959604L597.6279166666667,304.5802743037542L632.7825,314.6149022181829L667.9370833333334,300.5049800674121L703.0916666666667,273.6194233894348L738.24625,320.546109755834L773.4008333333334,313.645280679067L808.5554166666667,321.00429244836175L843.71,318.2680047353109L878.8645833333334,340.73771991332376L914.0191666666667,384.5077245235443L949.17375,346.69705359141034L984.3283333333334,400.2985112667084" style="fill: none;" fill="none"></path></g><g><path stroke="rgb(0, 119, 187)" stroke-width="2px" d="M70.30916666666667,2.7858885924020704L105.46375,24.123030384381558L140.61833333333334,-47.042921106020664L175.77291666666667,22.104315042495685L210.9275,54.62180364131923L246.08208333333334,71.15742750962569L281.2366666666667,102.73600486914314L316.39125,71.63912979761757L351.54583333333335,103.58795352776843L386.7004166666667,125.9801813761393L421.855,153.34245928128558L457.00958333333335,157.07113909721372L492.1641666666667,164.129564444224L527.31875,176.05047889550525L562.4733333333334,187.6485606829325L597.6279166666667,206.87193500995636L632.7825,208.5528370539347L667.9370833333334,253.88090250889456L703.0916666666667,197.22530551751453L738.24625,228.9156384070714L773.4008333333334,260.78274277846015L808.5554166666667,289.2149375677109L843.71,269.69711887836456L878.8645833333334,321.47093919912976L914.0191666666667,330.21659590800607L949.17375,354.55911505222326L984.3283333333334,379.8545148770015" style="fill: none;" fill="none"></path></g><g><path stroke="rgb(187, 187, 187)" stroke-width="2px" d="M70.30916666666667,19.52322669823959L105.46375,47.60120439529415L140.61833333333334,7.428012569745325L175.77291666666667,28.84604978561397L210.9275,72.22270039717354L246.08208333333334,135.62224177519477L281.2366666666667,154.42503480116522L316.39125,133.58008174101508L351.54583333333335,166.89214317003882L386.7004166666667,158.9207979838053L421.855,135.63347725073493L457.00958333333335,146.00936400890347L492.1641666666667,164.4384651184082L527.31875,188.31415025393164L562.4733333333334,205.14886248111725L597.6279166666667,205.84531215826667L632.7825,236.2583212852478L667.9370833333334,228.30914743741351L703.0916666666667,247.1136632363001L738.24625,258.6826076904932L773.4008333333334,250.8821166356405L808.5554166666667,265.195625603199L843.71,239.56686921914422L878.8645833333334,286.0215907096863L914.0191666666667,296.11587899923325L949.17375,310.82206783692044L984.3283333333334,316.0558894077937L1019.4829166666667,283.19429564476013" style="fill: none;" fill="none"></path></g></g></g></g></g></g><g transform="translate(51, 377)" clip-path="url(#clip_1)"><clipPath id="clip_1"><rect width="1054" height="23"></rect></clipPath><g><g><line x1="0" y1="0" x2="0" y2="5" style="visibility: inherit;" fill="rgb(0, 0, 0)" stroke="rgb(204, 204, 204)" stroke-width="1px"></line><line x1="70.30916666666667" y1="0" x2="70.30916666666667" y2="5" style="visibility: inherit;" fill="rgb(0, 0, 0)" stroke="rgb(204, 204, 204)" stroke-width="1px"></line><line x1="140.61833333333334" y1="0" x2="140.61833333333334" y2="5" style="visibility: inherit;" fill="rgb(0, 0, 0)" stroke="rgb(204, 204, 204)" stroke-width="1px"></line><line x1="210.9275" y1="0" x2="210.9275" y2="5" style="visibility: inherit;" fill="rgb(0, 0, 0)" stroke="rgb(204, 204, 204)" stroke-width="1px"></line><line x1="281.2366666666667" y1="0" x2="281.2366666666667" y2="5" style="visibility: inherit;" fill="rgb(0, 0, 0)" stroke="rgb(204, 204, 204)" stroke-width="1px"></line><line x1="351.54583333333335" y1="0" x2="351.54583333333335" y2="5" style="visibility: inherit;" fill="rgb(0, 0, 0)" stroke="rgb(204, 204, 204)" stroke-width="1px"></line><line x1="421.855" y1="0" x2="421.855" y2="5" style="visibility: inherit;" fill="rgb(0, 0, 0)" stroke="rgb(204, 204, 204)" stroke-width="1px"></line><line x1="492.1641666666667" y1="0" x2="492.1641666666667" y2="5" style="visibility: inherit;" fill="rgb(0, 0, 0)" stroke="rgb(204, 204, 204)" stroke-width="1px"></line><line x1="562.4733333333334" y1="0" x2="562.4733333333334" y2="5" style="visibility: inherit;" fill="rgb(0, 0, 0)" stroke="rgb(204, 204, 204)" stroke-width="1px"></line><line x1="632.7825" y1="0" x2="632.7825" y2="5" style="visibility: inherit;" fill="rgb(0, 0, 0)" stroke="rgb(204, 204, 204)" stroke-width="1px"></line><line x1="703.0916666666667" y1="0" x2="703.0916666666667" y2="5" style="visibility: inherit;" fill="rgb(0, 0, 0)" stroke="rgb(204, 204, 204)" stroke-width="1px"></line><line x1="773.4008333333334" y1="0" x2="773.4008333333334" y2="5" style="visibility: inherit;" fill="rgb(0, 0, 0)" stroke="rgb(204, 204, 204)" stroke-width="1px"></line><line x1="843.71" y1="0" x2="843.71" y2="5" style="visibility: inherit;" fill="rgb(0, 0, 0)" stroke="rgb(204, 204, 204)" stroke-width="1px"></line><line x1="914.0191666666667" y1="0" x2="914.0191666666667" y2="5" style="visibility: inherit;" fill="rgb(0, 0, 0)" stroke="rgb(204, 204, 204)" stroke-width="1px"></line><line x1="984.3283333333334" y1="0" x2="984.3283333333334" y2="5" style="visibility: inherit;" fill="rgb(0, 0, 0)" stroke="rgb(204, 204, 204)" stroke-width="1px"></line><line x1="1054.6375" y1="0" x2="1054.6375" y2="5" style="visibility: inherit;" fill="rgb(0, 0, 0)" stroke="rgb(204, 204, 204)" stroke-width="1px"></line></g><g transform="translate(0, 8)"><text x="0" y="0" dx="0em" dy="0.95em" style="text-anchor: middle; visibility: hidden; font-family: Roboto, sans-serif; font-size: 12px; font-weight: 200;" fill="rgb(255, 255, 255)" stroke="none" stroke-width="1px">-2</text><text x="70.30916666666667" y="0" dx="0em" dy="0.95em" style="text-anchor: middle; visibility: inherit; font-family: Roboto, sans-serif; font-size: 12px; font-weight: 200;" fill="rgb(255, 255, 255)" stroke="none" stroke-width="1px">0</text><text x="140.61833333333334" y="0" dx="0em" dy="0.95em" style="text-anchor: middle; visibility: inherit; font-family: Roboto, sans-serif; font-size: 12px; font-weight: 200;" fill="rgb(255, 255, 255)" stroke="none" stroke-width="1px">2</text><text x="210.9275" y="0" dx="0em" dy="0.95em" style="text-anchor: middle; visibility: inherit; font-family: Roboto, sans-serif; font-size: 12px; font-weight: 200;" fill="rgb(255, 255, 255)" stroke="none" stroke-width="1px">4</text><text x="281.2366666666667" y="0" dx="0em" dy="0.95em" style="text-anchor: middle; visibility: inherit; font-family: Roboto, sans-serif; font-size: 12px; font-weight: 200;" fill="rgb(255, 255, 255)" stroke="none" stroke-width="1px">6</text><text x="351.54583333333335" y="0" dx="0em" dy="0.95em" style="text-anchor: middle; visibility: inherit; font-family: Roboto, sans-serif; font-size: 12px; font-weight: 200;" fill="rgb(255, 255, 255)" stroke="none" stroke-width="1px">8</text><text x="421.855" y="0" dx="0em" dy="0.95em" style="text-anchor: middle; visibility: inherit; font-family: Roboto, sans-serif; font-size: 12px; font-weight: 200;" fill="rgb(255, 255, 255)" stroke="none" stroke-width="1px">10</text><text x="492.1641666666667" y="0" dx="0em" dy="0.95em" style="text-anchor: middle; visibility: inherit; font-family: Roboto, sans-serif; font-size: 12px; font-weight: 200;" fill="rgb(255, 255, 255)" stroke="none" stroke-width="1px">12</text><text x="562.4733333333334" y="0" dx="0em" dy="0.95em" style="text-anchor: middle; visibility: inherit; font-family: Roboto, sans-serif; font-size: 12px; font-weight: 200;" fill="rgb(255, 255, 255)" stroke="none" stroke-width="1px">14</text><text x="632.7825" y="0" dx="0em" dy="0.95em" style="text-anchor: middle; visibility: inherit; font-family: Roboto, sans-serif; font-size: 12px; font-weight: 200;" fill="rgb(255, 255, 255)" stroke="none" stroke-width="1px">16</text><text x="703.0916666666667" y="0" dx="0em" dy="0.95em" style="text-anchor: middle; visibility: inherit; font-family: Roboto, sans-serif; font-size: 12px; font-weight: 200;" fill="rgb(255, 255, 255)" stroke="none" stroke-width="1px">18</text><text x="773.4008333333334" y="0" dx="0em" dy="0.95em" style="text-anchor: middle; visibility: inherit; font-family: Roboto, sans-serif; font-size: 12px; font-weight: 200;" fill="rgb(255, 255, 255)" stroke="none" stroke-width="1px">20</text><text x="843.71" y="0" dx="0em" dy="0.95em" style="text-anchor: middle; visibility: inherit; font-family: Roboto, sans-serif; font-size: 12px; font-weight: 200;" fill="rgb(255, 255, 255)" stroke="none" stroke-width="1px">22</text><text x="914.0191666666667" y="0" dx="0em" dy="0.95em" style="text-anchor: middle; visibility: inherit; font-family: Roboto, sans-serif; font-size: 12px; font-weight: 200;" fill="rgb(255, 255, 255)" stroke="none" stroke-width="1px">24</text><text x="984.3283333333334" y="0" dx="0em" dy="0.95em" style="text-anchor: middle; visibility: inherit; font-family: Roboto, sans-serif; font-size: 12px; font-weight: 200;" fill="rgb(255, 255, 255)" stroke="none" stroke-width="1px">26</text><text x="1054.6375" y="0" dx="0em" dy="0.95em" style="text-anchor: middle; visibility: hidden; font-family: Roboto, sans-serif; font-size: 12px; font-weight: 200;" fill="rgb(255, 255, 255)" stroke="none" stroke-width="1px">28</text></g><line x1="0" y1="0" x2="1054.6375" y2="0" fill="rgb(0, 0, 0)" stroke="rgb(204, 204, 204)" stroke-width="1px"></line></g></g></g></g></svg>